<svg width="80" height="80" viewBox="0 0 80 80" fill="none" xmlns="http://www.w3.org/2000/svg">
<g clip-path="url(#clip0_1404_2488)">
<path d="M61.1579 32.5755C60.5826 33.5719 60.924 34.8461 61.9204 35.4214C62.9169 35.9967 64.191 35.6553 64.7663 34.6588C65.3416 33.6624 65.0002 32.3882 64.0037 31.8129C63.0073 31.2376 61.7332 31.579 61.1579 32.5755Z" fill="url(#paint0_linear_1404_2488)"/>
<path fill-rule="evenodd" clip-rule="evenodd" d="M57.5247 20.3905C61.1172 19.2571 63.3055 18.5667 65.274 18.6058C69.3835 18.6874 73.1641 20.8702 75.2895 24.3883C76.3077 26.0735 76.8039 28.3138 77.6186 31.9916L77.7248 32.4709C78.0441 33.9105 78.2405 34.7964 78.3027 35.6852C78.4313 37.5225 78.1345 39.3648 77.4353 41.0688C77.0971 41.8931 76.6324 42.6724 75.8772 43.9389L70.5287 52.9094C68.8265 55.7654 67.7877 57.5083 66.4695 58.7077C63.5568 61.3579 59.5276 62.4072 55.6922 61.5145C53.9564 61.1105 52.1994 60.0958 49.3203 58.433L48.7751 58.1182C45.8955 56.4562 44.1382 55.442 42.9204 54.1407C40.2296 51.2655 39.1238 47.2515 39.9625 43.4039C40.3421 41.6626 41.3321 39.8916 42.9544 36.9894L48.0489 27.8722C48.7681 26.5849 49.2106 25.7928 49.7554 25.0878C50.8815 23.6303 52.3285 22.4521 53.984 21.6448C54.7849 21.2542 55.6502 20.9815 57.0566 20.5381L57.5247 20.3905ZM58.4515 31.013C57.0133 33.5041 57.8668 36.6895 60.3579 38.1277C62.849 39.5659 66.0344 38.7124 67.4726 36.2213C68.9109 33.7302 68.0574 30.5448 65.5662 29.1066C63.0751 27.6684 59.8898 28.5219 58.4515 31.013Z" fill="url(#paint1_linear_1404_2488)"/>
<g filter="url(#filter0_b_1404_2488)">
<path fill-rule="evenodd" clip-rule="evenodd" d="M32.5395 6.858C38.2876 5.04455 41.7887 3.93998 44.9385 4.00252C51.5136 4.13308 57.5626 7.62551 60.9632 13.2544C62.5922 15.9509 63.3862 19.5352 64.6897 25.4198L64.8597 26.1866C65.3705 28.4901 65.6848 29.9074 65.7843 31.3295C65.9901 34.2692 65.5152 37.2169 64.3965 39.9433C63.8554 41.2622 63.1119 42.509 61.9034 44.5355L53.346 58.8883C50.6224 63.4579 48.9603 66.2465 46.8511 68.1656C42.1908 72.4058 35.7442 74.0847 29.6075 72.6565C26.8302 72.0101 24.0191 70.3865 19.4125 67.726L18.5401 67.2223C13.9327 64.5632 11.1211 62.9404 9.17262 60.8584C4.8674 56.258 3.0981 49.8356 4.44007 43.6795C5.04742 40.8934 6.63135 38.0598 9.22696 33.4162L17.3782 18.8288C18.5289 16.7691 19.237 15.5017 20.1086 14.3736C21.9104 12.0416 24.2257 10.1565 26.8745 8.86484C28.1558 8.24 29.5403 7.80355 31.7905 7.09422L32.5395 6.858Z" fill="#C927AA" fill-opacity="0.35"/>
<path d="M44.9394 3.95253C41.7815 3.88983 38.2735 4.99656 32.5351 6.80698L32.5245 6.81032L31.7755 7.04653L31.7718 7.0477C29.5249 7.75599 28.1372 8.19343 26.8525 8.8199C24.1968 10.115 21.8755 12.005 20.069 14.3431C19.1951 15.4741 18.4854 16.7444 17.3364 18.8011L17.3345 18.8044L9.18332 33.3918L9.17859 33.4003C6.58725 38.0362 5.00015 40.8755 4.39122 43.6689C3.04575 49.841 4.81966 56.2802 9.13611 60.8925C11.0897 62.98 13.907 64.606 18.5068 67.2608L18.5151 67.2656L19.3875 67.7693L19.3958 67.7741C23.9949 70.4303 26.8116 72.0571 29.5962 72.7052C35.7488 74.1372 42.2123 72.4538 46.8848 68.2025C48.9994 66.2785 50.6649 63.4843 53.3839 58.9223L53.3889 58.9139L61.9464 44.5611L61.9483 44.5578C63.155 42.5343 63.9002 41.2846 64.4428 39.9623C65.5644 37.2287 66.0405 34.2734 65.8342 31.326C65.7344 29.9001 65.4194 28.4796 64.9093 26.1794L64.9085 26.1758L64.7385 25.409L64.7361 25.3981C63.4348 19.5234 62.6393 15.932 61.006 13.2286C57.5965 7.58497 51.5317 4.08343 44.9394 3.95253Z" stroke="url(#paint2_linear_1404_2488)" stroke-width="0.1" stroke-linecap="round"/>
</g>
<g filter="url(#filter1_d_1404_2488)">
<path fill-rule="evenodd" clip-rule="evenodd" d="M34.0226 23.8538C31.7214 27.8396 33.0871 32.9362 37.0728 35.2374C41.0586 37.5386 46.1552 36.173 48.4564 32.1872C50.7576 28.2014 49.3919 23.1048 45.4062 20.8036C41.4204 18.5025 36.3238 19.8681 34.0226 23.8538Z" fill="url(#paint3_linear_1404_2488)"/>
</g>
</g>
<defs>
<filter id="filter0_b_1404_2488" x="-20.1001" y="-20.1001" width="110.031" height="117.356" filterUnits="userSpaceOnUse" color-interpolation-filters="sRGB">
<feFlood flood-opacity="0" result="BackgroundImageFix"/>
<feGaussianBlur in="BackgroundImage" stdDeviation="12"/>
<feComposite in2="SourceAlpha" operator="in" result="effect1_backgroundBlur_1404_2488"/>
<feBlend mode="normal" in="SourceGraphic" in2="effect1_backgroundBlur_1404_2488" result="shape"/>
</filter>
<filter id="filter1_d_1404_2488" x="29.9048" y="16.6858" width="32.6694" height="32.6694" filterUnits="userSpaceOnUse" color-interpolation-filters="sRGB">
<feFlood flood-opacity="0" result="BackgroundImageFix"/>
<feColorMatrix in="SourceAlpha" type="matrix" values="0 0 0 0 0 0 0 0 0 0 0 0 0 0 0 0 0 0 127 0" result="hardAlpha"/>
<feOffset dx="5" dy="5"/>
<feGaussianBlur stdDeviation="4"/>
<feColorMatrix type="matrix" values="0 0 0 0 0.815686 0 0 0 0 0.156863 0 0 0 0 0.678431 0 0 0 0.5 0"/>
<feBlend mode="normal" in2="BackgroundImageFix" result="effect1_dropShadow_1404_2488"/>
<feBlend mode="normal" in="SourceGraphic" in2="effect1_dropShadow_1404_2488" result="shape"/>
</filter>
<linearGradient id="paint0_linear_1404_2488" x1="39.6875" y1="61.8266" x2="83.3436" y2="24.4593" gradientUnits="userSpaceOnUse">
<stop stop-color="#94208F"/>
<stop offset="1" stop-color="#FF2EC5"/>
</linearGradient>
<linearGradient id="paint1_linear_1404_2488" x1="39.6875" y1="61.8266" x2="83.3436" y2="24.4593" gradientUnits="userSpaceOnUse">
<stop stop-color="#94208F"/>
<stop offset="1" stop-color="#FF2EC5"/>
</linearGradient>
<linearGradient id="paint2_linear_1404_2488" x1="35.4362" y1="87.8888" x2="130.077" y2="4.9437" gradientUnits="userSpaceOnUse">
<stop stop-color="white"/>
<stop offset="1" stop-color="white" stop-opacity="0.2"/>
</linearGradient>
<linearGradient id="paint3_linear_1404_2488" x1="41.3799" y1="39.9066" x2="64.3864" y2="17.3545" gradientUnits="userSpaceOnUse">
<stop stop-color="white"/>
<stop offset="1" stop-color="white" stop-opacity="0.2"/>
</linearGradient>
<clipPath id="clip0_1404_2488">
<rect width="80" height="80" rx="8" fill="white"/>
</clipPath>
</defs>
</svg>
