<svg width="146" height="30" viewBox="0 0 146 30" fill="none" xmlns="http://www.w3.org/2000/svg">
<path d="M30.8979 3.24702C28.5368 2.14232 26.0122 1.33947 23.3728 0.882324C23.0487 1.46837 22.6699 2.25662 22.4088 2.88367C19.6031 2.46172 16.8232 2.46172 14.069 2.88367C13.808 2.25662 13.4207 1.46837 13.0936 0.882324C10.4514 1.33947 7.92385 2.14527 5.56275 3.25287C0.80039 10.4494 -0.490607 17.4672 0.154893 24.3854C3.31354 26.7442 6.37465 28.1771 9.3841 29.1147C10.1271 28.0921 10.7899 27.005 11.3608 25.8593C10.2735 25.4461 9.23205 24.9363 8.24805 24.3444C8.5091 24.151 8.76445 23.9488 9.01115 23.7407C15.0129 26.5479 21.5339 26.5479 27.4639 23.7407C27.7135 23.9488 27.9687 24.151 28.2269 24.3444C27.24 24.9392 26.1958 25.449 25.1085 25.8622C25.6794 27.005 26.3392 28.095 27.0851 29.1176C30.0975 28.18 33.1614 26.7471 36.3201 24.3854C37.0775 16.3655 35.0262 9.41212 30.8979 3.24702ZM12.1784 20.1308C10.3767 20.1308 8.89925 18.4488 8.89925 16.4006C8.89925 14.3524 10.3452 12.6676 12.1784 12.6676C14.0117 12.6676 15.4891 14.3495 15.4576 16.4006C15.4604 18.4488 14.0117 20.1308 12.1784 20.1308ZM24.2966 20.1308C22.495 20.1308 21.0175 18.4488 21.0175 16.4006C21.0175 14.3524 22.4634 12.6676 24.2966 12.6676C26.1298 12.6676 27.6073 14.3495 27.5758 16.4006C27.5758 18.4488 26.1298 20.1308 24.2966 20.1308Z" fill="white"/>
<path d="M49.0146 8.08545H56.8465C58.7345 8.08545 60.3295 8.38725 61.638 8.98795C62.943 9.5886 63.9215 10.4266 64.57 11.4991C65.218 12.5715 65.545 13.7993 65.545 15.1823C65.545 16.5361 65.2065 17.7639 64.5295 18.8626C63.8525 19.9644 62.8225 20.8347 61.437 21.4764C60.0515 22.1181 58.3355 22.4404 56.2845 22.4404H49.0146V8.08545ZM56.204 18.7923C57.475 18.7923 58.4535 18.4671 59.136 17.8195C59.819 17.169 60.1605 16.2841 60.1605 15.1618C60.1605 14.1216 59.856 13.2923 59.248 12.6711C58.64 12.0499 57.719 11.7364 56.488 11.7364H54.038V18.7923H56.204Z" fill="white"/>
<path d="M77.2709 22.4229C76.1864 22.1358 75.2079 21.7197 74.3389 21.1717V17.7669C74.9959 18.2855 75.8764 18.7133 76.9809 19.0503C78.0854 19.3843 79.1529 19.5513 80.1854 19.5513C80.6674 19.5513 81.0319 19.4869 81.2784 19.3579C81.5254 19.229 81.6489 19.0737 81.6489 18.895C81.6489 18.6899 81.5829 18.5199 81.4479 18.3822C81.3129 18.2445 81.0519 18.1302 80.6649 18.0335L78.2549 17.4797C76.8749 17.1515 75.8964 16.6973 75.3144 16.1142C74.7319 15.534 74.4419 14.7722 74.4419 13.8287C74.4419 13.0346 74.6944 12.346 75.2054 11.757C75.7129 11.1681 76.4359 10.7139 77.3739 10.3945C78.3124 10.0722 79.4079 9.91101 80.6674 9.91101C81.7919 9.91101 82.8219 10.0341 83.7604 10.2802C84.6984 10.5264 85.4729 10.8399 86.0899 11.2237V14.444C85.4584 14.0602 84.7354 13.7584 83.9094 13.5298C83.0859 13.3042 82.2399 13.1928 81.3674 13.1928C80.1079 13.1928 79.4799 13.4126 79.4799 13.8492C79.4799 14.0543 79.5774 14.2067 79.7724 14.3092C79.9674 14.4118 80.3259 14.5173 80.8454 14.6286L82.8534 14.9978C84.1649 15.2293 85.1429 15.6366 85.7854 16.2168C86.4284 16.797 86.7494 17.6555 86.7494 18.7924C86.7494 20.0377 86.2189 21.0252 85.1544 21.7578C84.0899 22.4903 82.5809 22.8566 80.6244 22.8566C79.4739 22.8537 78.3554 22.7101 77.2709 22.4229Z" fill="white"/>
<path d="M91.4886 21.9919C90.3386 21.4176 89.4691 20.6382 88.8896 19.6536C88.3101 18.6691 88.0176 17.5615 88.0176 16.3308C88.0176 15.1001 88.3186 13.9984 88.9211 13.0285C89.5236 12.0586 90.4071 11.2967 91.5721 10.7429C92.7366 10.1891 94.1281 9.9137 95.7491 9.9137C97.7571 9.9137 99.4241 10.3444 100.75 11.2059V14.9595C100.282 14.6313 99.7366 14.3646 99.1141 14.1595C98.4916 13.9544 97.8261 13.8518 97.1146 13.8518C95.8696 13.8518 94.8971 14.0833 94.1941 14.5492C93.4911 15.0151 93.1386 15.6217 93.1386 16.3747C93.1386 17.1131 93.4796 17.7168 94.1626 18.1915C94.8456 18.6632 95.8351 18.9006 97.1346 18.9006C97.8031 18.9006 98.4631 18.8009 99.1141 18.6046C99.7626 18.4054 100.322 18.1622 100.79 17.875V21.5055C99.3181 22.408 97.6111 22.8592 95.6686 22.8592C94.0336 22.8534 92.6391 22.5662 91.4886 21.9919Z" fill="white"/>
<path d="M105.759 21.9921C104.6 21.4178 103.717 20.6325 103.108 19.6333C102.5 18.6341 102.193 17.5206 102.193 16.2899C102.193 15.0593 102.497 13.9604 103.108 12.9964C103.719 12.0324 104.597 11.2764 105.751 10.7284C106.901 10.1805 108.275 9.90796 109.867 9.90796C111.46 9.90796 112.834 10.1805 113.984 10.7284C115.135 11.2764 116.013 12.0265 116.615 12.9847C117.218 13.9429 117.519 15.0417 117.519 16.287C117.519 17.5177 117.218 18.6312 116.615 19.6303C116.013 20.6295 115.132 21.4148 113.973 21.9891C112.814 22.5635 111.445 22.8506 109.865 22.8506C108.284 22.8506 106.915 22.5664 105.759 21.9921ZM111.861 18.3528C112.349 17.8547 112.596 17.1954 112.596 16.3749C112.596 15.5545 112.352 14.901 111.861 14.4175C111.374 13.9311 110.708 13.6879 109.865 13.6879C109.007 13.6879 108.335 13.9311 107.845 14.4175C107.357 14.904 107.113 15.5545 107.113 16.3749C107.113 17.1954 107.357 17.8547 107.845 18.3528C108.333 18.8509 109.007 19.1029 109.865 19.1029C110.708 19.1 111.374 18.8509 111.861 18.3528Z" fill="white"/>
<path d="M129.585 10.6699V15.1003C129.074 14.7575 128.414 14.5875 127.597 14.5875C126.526 14.5875 125.7 14.9187 125.126 15.5809C124.55 16.2431 124.263 17.2745 124.263 18.6693V22.4434H119.343V10.4443H124.163V14.2594C124.429 12.8646 124.863 11.8361 125.459 11.1709C126.053 10.5087 126.822 10.1776 127.757 10.1776C128.466 10.1776 129.074 10.3417 129.585 10.6699Z" fill="white"/>
<path d="M145.932 7.67517V22.4433H141.011V19.7564C140.595 20.7673 139.964 21.5379 139.115 22.0653C138.266 22.5899 137.216 22.8536 135.971 22.8536C134.858 22.8536 133.888 22.5781 133.059 22.0243C132.23 21.4705 131.59 20.7116 131.14 19.7476C130.692 18.7835 130.465 17.6935 130.465 16.4746C130.451 15.2175 130.689 14.0894 131.18 13.0902C131.668 12.091 132.359 11.3116 133.248 10.7519C134.138 10.1922 135.153 9.91092 136.292 9.91092C138.636 9.91092 140.208 10.9511 141.011 13.0286V7.67517H145.932ZM140.277 18.2708C140.779 17.7726 141.029 17.1251 141.029 16.3339C141.029 15.5691 140.785 14.945 140.297 14.4674C139.809 13.9898 139.141 13.7495 138.3 13.7495C137.471 13.7495 136.809 13.9927 136.312 14.4791C135.816 14.9655 135.569 15.5955 135.569 16.3749C135.569 17.1544 135.816 17.7902 136.312 18.2825C136.809 18.7747 137.463 19.0209 138.28 19.0209C139.109 19.018 139.775 18.7689 140.277 18.2708Z" fill="white"/>
<path d="M69.6913 11.7217C71.0458 11.7217 72.1443 10.7141 72.1443 9.4713C72.1443 8.22845 71.0458 7.22095 69.6913 7.22095C68.3363 7.22095 67.2383 8.22845 67.2383 9.4713C67.2383 10.7141 68.3363 11.7217 69.6913 11.7217Z" fill="white"/>
<path d="M67.2363 13.2719C68.7393 13.9341 70.6043 13.9634 72.1418 13.2719V22.5078H67.2363V13.2719Z" fill="white"/>
</svg>
