<svg width="24" height="24" viewBox="0 0 24 24" fill="none" xmlns="http://www.w3.org/2000/svg">
<path d="M4.5 3.75009L19.5 20.2501" stroke="white" stroke-width="2" stroke-linecap="round" stroke-linejoin="round"/>
<path d="M14.5225 14.7749C13.7866 15.4438 12.8151 15.793 11.8217 15.7457C10.8283 15.6983 9.8944 15.2583 9.22542 14.5224C8.55644 13.7865 8.20716 12.8151 8.25442 11.8217C8.30168 10.8283 8.74161 9.89436 9.47742 9.22531" stroke="white" stroke-width="2" stroke-linecap="round" stroke-linejoin="round"/>
<path d="M6.93698 6.43076C3.11486 8.36628 1.5 12.0001 1.5 12.0001C1.5 12.0001 4.5 18.7494 12 18.7494C13.7572 18.7634 15.4926 18.3586 17.0623 17.5686" stroke="white" stroke-width="2" stroke-linecap="round" stroke-linejoin="round"/>
<path d="M19.5572 15.8532C21.6011 14.0225 22.5001 12.0001 22.5001 12.0001C22.5001 12.0001 19.5001 5.24937 12.0001 5.24937C11.3505 5.24831 10.7019 5.30112 10.0611 5.40726" stroke="white" stroke-width="2" stroke-linecap="round" stroke-linejoin="round"/>
<path d="M12.7057 8.31647C13.5027 8.46952 14.2287 8.87686 14.7746 9.47741C15.3205 10.0779 15.657 10.8393 15.7336 11.6473" stroke="white" stroke-width="2" stroke-linecap="round" stroke-linejoin="round"/>
</svg>
