<svg width="24" height="24" viewBox="0 0 24 24" fill="none" xmlns="http://www.w3.org/2000/svg">
<path d="M14.25 10.5H18" stroke="#D6D2D9" stroke-width="2" stroke-linecap="round" stroke-linejoin="round"/>
<path d="M14.25 13.5H18" stroke="#D6D2D9" stroke-width="2" stroke-linecap="round" stroke-linejoin="round"/>
<path d="M8.6344 13.5C9.87704 13.5 10.8844 12.4926 10.8844 11.25C10.8844 10.0074 9.87704 9 8.6344 9C7.39176 9 6.3844 10.0074 6.3844 11.25C6.3844 12.4926 7.39176 13.5 8.6344 13.5Z" stroke="#D6D2D9" stroke-width="2" stroke-linecap="round" stroke-linejoin="round"/>
<path d="M5.72888 15.75C5.89534 15.106 6.27103 14.5355 6.79692 14.1283C7.32281 13.721 7.96911 13.5 8.63425 13.5C9.2994 13.5 9.94571 13.7209 10.4716 14.1282C10.9976 14.5354 11.3733 15.1058 11.5398 15.7498" stroke="#D6D2D9" stroke-width="2" stroke-linecap="round" stroke-linejoin="round"/>
<path d="M20.25 4.5H3.75C3.33579 4.5 3 4.83579 3 5.25V18.75C3 19.1642 3.33579 19.5 3.75 19.5H20.25C20.6642 19.5 21 19.1642 21 18.75V5.25C21 4.83579 20.6642 4.5 20.25 4.5Z" stroke="#D6D2D9" stroke-width="2" stroke-linecap="round" stroke-linejoin="round"/>
</svg>
