<svg width="24" height="24" viewBox="0 0 24 24" fill="none" xmlns="http://www.w3.org/2000/svg">
<path d="M7 18V17C7 15.6739 7.52678 14.4021 8.46447 13.4645C9.40215 12.5268 10.6739 12 12 12C13.3261 12 14.5979 12.5268 15.5355 13.4645C16.4732 14.4021 17 15.6739 17 17V18" stroke="white" stroke-width="2" stroke-linecap="round"/>
<path d="M12 12C12.7956 12 13.5587 11.6839 14.1213 11.1213C14.6839 10.5587 15 9.79565 15 9C15 8.20435 14.6839 7.44129 14.1213 6.87868C13.5587 6.31607 12.7956 6 12 6C11.2044 6 10.4413 6.31607 9.87868 6.87868C9.31607 7.44129 9 8.20435 9 9C9 9.79565 9.31607 10.5587 9.87868 11.1213C10.4413 11.6839 11.2044 12 12 12V12Z" stroke="white" stroke-width="2" stroke-linecap="round" stroke-linejoin="round"/>
<path d="M21 3.6V20.4C21 20.5591 20.9368 20.7117 20.8243 20.8243C20.7117 20.9368 20.5591 21 20.4 21H3.6C3.44087 21 3.28826 20.9368 3.17574 20.8243C3.06321 20.7117 3 20.5591 3 20.4V3.6C3 3.44087 3.06321 3.28826 3.17574 3.17574C3.28826 3.06321 3.44087 3 3.6 3H20.4C20.5591 3 20.7117 3.06321 20.8243 3.17574C20.9368 3.28826 21 3.44087 21 3.6V3.6Z" stroke="white" stroke-width="2" stroke-linecap="round" stroke-linejoin="round"/>
</svg>
