<svg width="24" height="24" viewBox="0 0 24 24" fill="none" xmlns="http://www.w3.org/2000/svg">
<path d="M11.7352 2.14334C11.8416 2.0509 11.9778 2 12.1188 2C12.2597 2 12.3959 2.0509 12.5023 2.14334L14.4011 3.79255C14.4602 3.84397 14.5291 3.88298 14.6036 3.90726C14.6781 3.93153 14.7567 3.94059 14.8348 3.93389L17.3418 3.71555C17.4821 3.7035 17.6221 3.74251 17.736 3.82542C17.8499 3.90833 17.93 4.02957 17.9617 4.16684L18.529 6.61727C18.5465 6.69385 18.5792 6.76611 18.6253 6.82975C18.6714 6.89338 18.7298 6.94709 18.797 6.98766L20.9531 8.28403C21.0737 8.35667 21.1641 8.47041 21.2076 8.60435C21.2511 8.73829 21.2449 8.88344 21.1899 9.01312L20.2074 11.329C20.1769 11.4012 20.1611 11.4788 20.1611 11.5571C20.1611 11.6355 20.1769 11.713 20.2074 11.7852L21.1899 14.1011C21.2451 14.2309 21.2516 14.3763 21.208 14.5104C21.1645 14.6446 21.074 14.7585 20.9531 14.8312L18.797 16.1275C18.7299 16.168 18.6715 16.2216 18.6255 16.285C18.5794 16.3485 18.5466 16.4206 18.529 16.497L17.9617 18.9474C17.93 19.0847 17.8499 19.2059 17.736 19.2888C17.6221 19.3717 17.4821 19.4107 17.3418 19.3987L14.8348 19.1803C14.7568 19.1735 14.6782 19.1824 14.6037 19.2065C14.5292 19.2306 14.4603 19.2695 14.4011 19.3207L12.5013 20.9709C12.3949 21.0633 12.2587 21.1142 12.1178 21.1142C11.9769 21.1142 11.8406 21.0633 11.7342 20.9709L9.83551 19.3207C9.77629 19.2695 9.70738 19.2306 9.63288 19.2065C9.55837 19.1824 9.47977 19.1735 9.40176 19.1803L6.8948 19.3987C6.75444 19.4107 6.61445 19.3717 6.50056 19.2888C6.38667 19.2059 6.30653 19.0847 6.27488 18.9474L5.7076 16.497C5.69009 16.4204 5.65732 16.3481 5.61127 16.2845C5.56522 16.2209 5.50682 16.1671 5.43955 16.1266L3.28349 14.8302C3.16284 14.7576 3.07246 14.6438 3.02894 14.5099C2.98543 14.3759 2.99171 14.2308 3.04663 14.1011L4.02914 11.7852C4.0597 11.713 4.07545 11.6355 4.07545 11.5571C4.07545 11.4788 4.0597 11.4012 4.02914 11.329L3.04663 9.01312C2.99144 8.88332 2.98502 8.73795 3.02854 8.60379C3.07207 8.46964 3.16261 8.35573 3.28349 8.28305L5.43955 6.98669C5.50671 6.94622 5.56505 6.89267 5.6111 6.82921C5.65715 6.76574 5.68997 6.69367 5.7076 6.61727L6.27488 4.16684C6.30653 4.02957 6.38667 3.90833 6.50056 3.82542C6.61445 3.74251 6.75444 3.7035 6.8948 3.71555L9.40176 3.93389C9.47984 3.94059 9.55847 3.93153 9.63298 3.90726C9.7075 3.88298 9.77637 3.84397 9.83551 3.79255L11.7352 2.14334V2.14334Z" stroke="white" stroke-width="2"/>
<path d="M9.19409 12.5318L11.1435 14.4812L15.0424 9.36402" stroke="white" stroke-width="2" stroke-linecap="round" stroke-linejoin="round"/>
</svg>
