<svg width="48" height="48" viewBox="0 0 48 48" fill="none" xmlns="http://www.w3.org/2000/svg">
<circle cx="34" cy="22" r="8" fill="#1DD1A1"/>
<g filter="url(#filter0_b_2043_42506)">
<path fill-rule="evenodd" clip-rule="evenodd" d="M23.3577 3.68555C17.1328 3.68555 12.0865 8.73184 12.0865 14.9568V17.1399C12.0865 17.2708 12.1036 17.3978 12.1358 17.5186C9.3207 18.553 7.12651 20.824 6.19552 23.6893C5.71582 25.1657 5.71582 26.9899 5.71582 30.6384C5.71582 34.2869 5.71582 36.1112 6.19552 37.5875C7.16502 40.5714 9.50437 42.9107 12.4882 43.8802C13.9645 44.3599 15.7888 44.3599 19.4372 44.3599H27.2781C30.9266 44.3599 32.7509 44.3599 34.2272 43.8802C37.2111 42.9107 39.5504 40.5714 40.5199 37.5875C40.9996 36.1112 40.9996 34.2869 40.9996 30.6384C40.9996 26.9899 40.9996 25.1657 40.5199 23.6893C39.5504 20.7055 37.2111 18.3662 34.2272 17.3967C33.8944 17.2885 33.5439 17.2048 33.1588 17.1399C31.8356 16.917 30.1041 16.917 27.2781 16.917H19.4373C17.5451 16.917 16.1436 16.917 15.0268 16.9839V14.9568C15.0268 10.3557 18.7567 6.62586 23.3577 6.62586C25.2352 6.62586 26.9638 7.24519 28.3562 8.2913C29.0054 8.77901 29.927 8.64815 30.4147 7.999C30.9024 7.34986 30.7715 6.42825 30.1224 5.94053C28.2383 4.52497 25.8939 3.68555 23.3577 3.68555Z" fill="#1DD1A1" fill-opacity="0.35"/>
<path d="M33.1588 17.1399C33.5439 17.2048 33.8944 17.2885 34.2272 17.3967C37.2111 18.3662 39.5504 20.7055 40.5199 23.6893C40.9996 25.1657 40.9996 26.9899 40.9996 30.6384C40.9996 34.2869 40.9996 36.1112 40.5199 37.5875C39.5504 40.5714 37.2111 42.9107 34.2272 43.8802C32.7509 44.3599 30.9266 44.3599 27.2781 44.3599H19.4372C15.7888 44.3599 13.9645 44.3599 12.4882 43.8802C9.50437 42.9107 7.16502 40.5714 6.19552 37.5875C5.71582 36.1112 5.71582 34.2869 5.71582 30.6384C5.71582 26.9899 5.71582 25.1657 6.19552 23.6893C7.12651 20.824 9.3207 18.553 12.1358 17.5186C12.1036 17.3978 12.0865 17.2708 12.0865 17.1399V14.9568C12.0865 8.73184 17.1328 3.68555 23.3577 3.68555C25.8939 3.68555 28.2383 4.52497 30.1224 5.94053C30.7715 6.42825 30.9024 7.34986 30.4147 7.999C29.927 8.64815 29.0054 8.77901 28.3562 8.2913C26.9638 7.24519 25.2352 6.62586 23.3577 6.62586C18.7567 6.62586 15.0268 10.3557 15.0268 14.9568V16.9839C16.1436 16.917 17.5451 16.917 19.4373 16.917H27.2781C30.1041 16.917 31.8356 16.917 33.1588 17.1399ZM33.1588 17.1399V16.917" stroke="url(#paint0_linear_2043_42506)" stroke-linecap="round"/>
</g>
<defs>
<filter id="filter0_b_2043_42506" x="-0.78418" y="-2.81445" width="48.2842" height="53.6744" filterUnits="userSpaceOnUse" color-interpolation-filters="sRGB">
<feFlood flood-opacity="0" result="BackgroundImageFix"/>
<feGaussianBlur in="BackgroundImage" stdDeviation="3"/>
<feComposite in2="SourceAlpha" operator="in" result="effect1_backgroundBlur_2043_42506"/>
<feBlend mode="normal" in="SourceGraphic" in2="effect1_backgroundBlur_2043_42506" result="shape"/>
</filter>
<linearGradient id="paint0_linear_2043_42506" x1="5.71582" y1="3.68555" x2="45.9972" y2="38.593" gradientUnits="userSpaceOnUse">
<stop stop-color="white" stop-opacity="0.25"/>
<stop offset="1" stop-color="white" stop-opacity="0"/>
</linearGradient>
</defs>
</svg>
