<svg width="40" height="40" viewBox="0 0 40 40" fill="none" xmlns="http://www.w3.org/2000/svg">
<circle cx="30" cy="10" r="10" fill="#1DD1A1"/>
<g filter="url(#filter0_b_2028_38525)">
<path fill-rule="evenodd" clip-rule="evenodd" d="M18.0001 40.0001C27.9412 40.0001 36.0001 31.9412 36.0001 22.0001C36.0001 12.0589 27.9412 4 18.0001 4C8.05891 4 0 12.0589 0 22.0001C0 31.9412 8.05891 40.0001 18.0001 40.0001Z" fill="#1DD1A1" fill-opacity="0.35"/>
<path d="M35.5001 22.0001C35.5001 31.6651 27.6651 39.5001 18.0001 39.5001C8.33505 39.5001 0.5 31.6651 0.5 22.0001C0.5 12.335 8.33505 4.5 18.0001 4.5C27.6651 4.5 35.5001 12.335 35.5001 22.0001Z" stroke="url(#paint0_linear_2028_38525)" stroke-linecap="round"/>
</g>
<g filter="url(#filter1_d_2028_38525)">
<path fill-rule="evenodd" clip-rule="evenodd" d="M28.0063 17.5005C28.5036 16.945 28.4565 16.0915 27.901 15.5942C27.3455 15.0969 26.492 15.144 25.9947 15.6995L19.9301 22.4733C18.7013 23.8459 17.8737 24.7653 17.1662 25.36C16.4922 25.9266 16.0963 26.0501 15.7504 26.0501C15.4046 26.0501 15.0087 25.9266 14.3347 25.36C13.6271 24.7653 12.7996 23.8458 11.5707 22.4733L10.0062 20.7258C9.50888 20.1703 8.6554 20.1232 8.09992 20.6205C7.54443 21.1178 7.49728 21.9713 7.99461 22.5268L9.62596 24.3489C10.7705 25.6274 11.7252 26.6938 12.5975 27.4269C13.5202 28.2025 14.5155 28.7501 15.7504 28.7501C16.9854 28.7501 17.9807 28.2025 18.9034 27.4269C19.7757 26.6938 20.7304 25.6274 21.8749 24.3489L28.0063 17.5005Z" fill="url(#paint1_linear_2028_38525)"/>
</g>
<defs>
<filter id="filter0_b_2028_38525" x="-6" y="-2" width="48" height="48.0001" filterUnits="userSpaceOnUse" color-interpolation-filters="sRGB">
<feFlood flood-opacity="0" result="BackgroundImageFix"/>
<feGaussianBlur in="BackgroundImage" stdDeviation="3"/>
<feComposite in2="SourceAlpha" operator="in" result="effect1_backgroundBlur_2028_38525"/>
<feBlend mode="normal" in="SourceGraphic" in2="effect1_backgroundBlur_2028_38525" result="shape"/>
</filter>
<filter id="filter1_d_2028_38525" x="5.65039" y="13.25" width="26.7002" height="19.5001" filterUnits="userSpaceOnUse" color-interpolation-filters="sRGB">
<feFlood flood-opacity="0" result="BackgroundImageFix"/>
<feColorMatrix in="SourceAlpha" type="matrix" values="0 0 0 0 0 0 0 0 0 0 0 0 0 0 0 0 0 0 127 0" result="hardAlpha"/>
<feOffset dx="1" dy="1"/>
<feGaussianBlur stdDeviation="1.5"/>
<feColorMatrix type="matrix" values="0 0 0 0 0.113725 0 0 0 0 0.819608 0 0 0 0 0.631373 0 0 0 0.5 0"/>
<feBlend mode="normal" in2="BackgroundImageFix" result="effect1_dropShadow_2028_38525"/>
<feBlend mode="normal" in="SourceGraphic" in2="effect1_dropShadow_2028_38525" result="shape"/>
</filter>
<linearGradient id="paint0_linear_2028_38525" x1="0" y1="4" x2="36.0184" y2="39.9819" gradientUnits="userSpaceOnUse">
<stop stop-color="white" stop-opacity="0.25"/>
<stop offset="1" stop-color="white" stop-opacity="0"/>
</linearGradient>
<linearGradient id="paint1_linear_2028_38525" x1="18.1748" y1="31.6262" x2="35.3637" y2="5.79035" gradientUnits="userSpaceOnUse">
<stop stop-color="white"/>
<stop offset="1" stop-color="white" stop-opacity="0.2"/>
</linearGradient>
</defs>
</svg>
