<svg width="24" height="24" viewBox="0 0 24 24" fill="none" xmlns="http://www.w3.org/2000/svg">
<path fill-rule="evenodd" clip-rule="evenodd" d="M24 12C24 18.6274 18.6274 24 12 24C5.37258 24 0 18.6274 0 12C0 5.37258 5.37258 0 12 0C18.6274 0 24 5.37258 24 12ZM12.4302 8.85891C11.263 9.34438 8.93029 10.3492 5.43204 11.8733C4.86398 12.0992 4.56641 12.3202 4.53932 12.5363C4.49354 12.9015 4.95086 13.0453 5.57363 13.2411C5.65834 13.2677 5.74611 13.2953 5.83609 13.3246C6.44879 13.5238 7.27298 13.7568 7.70144 13.766C8.0901 13.7744 8.52388 13.6142 9.00279 13.2853C12.2713 11.079 13.9585 9.96379 14.0645 9.93975C14.1392 9.92279 14.2428 9.90146 14.3129 9.96383C14.3831 10.0262 14.3762 10.1443 14.3688 10.176C14.3234 10.3691 12.5283 12.0381 11.5993 12.9018C11.3097 13.171 11.1042 13.362 11.0622 13.4056C10.9682 13.5033 10.8723 13.5958 10.7801 13.6846C10.2109 14.2333 9.78406 14.6448 10.8038 15.3168C11.2938 15.6397 11.6859 15.9067 12.0771 16.1731C12.5043 16.4641 12.9304 16.7542 13.4818 17.1156C13.6222 17.2077 13.7564 17.3034 13.887 17.3965C14.3842 17.751 14.8309 18.0694 15.3827 18.0186C15.7034 17.9891 16.0346 17.6876 16.2028 16.7883C16.6004 14.6631 17.3818 10.0584 17.5624 8.16096C17.5782 7.99471 17.5583 7.78195 17.5423 7.68856C17.5263 7.59516 17.4929 7.46209 17.3715 7.36358C17.2277 7.24692 17.0058 7.22232 16.9065 7.22407C16.4552 7.23202 15.7627 7.4728 12.4302 8.85891Z" fill="white"/>
</svg>
