<svg width="24" height="24" viewBox="0 0 24 24" fill="none" xmlns="http://www.w3.org/2000/svg">
<path d="M7.55016 21.7501C16.6045 21.7501 21.5583 14.2468 21.5583 7.74198C21.5583 7.53105 21.5536 7.31542 21.5442 7.10448C22.5079 6.40758 23.3395 5.54438 24 4.55542C23.1025 4.95472 22.1496 5.2155 21.1739 5.32886C22.2013 4.71303 22.9705 3.74559 23.3391 2.60589C22.3726 3.17868 21.3156 3.58273 20.2134 3.80073C19.4708 3.01168 18.489 2.48924 17.4197 2.31417C16.3504 2.13911 15.2532 2.32117 14.2977 2.83222C13.3423 3.34326 12.5818 4.15483 12.1338 5.14143C11.6859 6.12804 11.5754 7.23474 11.8195 8.29042C9.86249 8.19221 7.94794 7.68383 6.19998 6.79822C4.45203 5.91261 2.90969 4.66956 1.67297 3.14964C1.0444 4.23337 0.852057 5.51577 1.13503 6.73621C1.418 7.95666 2.15506 9.02357 3.19641 9.72011C2.41463 9.69529 1.64998 9.4848 0.965625 9.10604V9.16698C0.964925 10.3043 1.3581 11.4067 2.07831 12.2869C2.79852 13.1671 3.80132 13.7707 4.91625 13.9951C4.19206 14.1933 3.43198 14.2221 2.69484 14.0795C3.00945 15.0576 3.62157 15.913 4.44577 16.5265C5.26997 17.1399 6.26512 17.4807 7.29234 17.5014C5.54842 18.8712 3.39417 19.6142 1.17656 19.6107C0.783287 19.6101 0.390399 19.586 0 19.5385C2.25286 20.9839 4.87353 21.7515 7.55016 21.7501Z" fill="white"/>
</svg>
