<svg width="16" height="16" viewBox="0 0 16 16" fill="none" xmlns="http://www.w3.org/2000/svg">
<path d="M3.40381 12.5962C2.82856 12.0209 3.2101 10.8132 2.9173 10.1056C2.61377 9.37198 1.5 8.78156 1.5 7.99998C1.5 7.21841 2.61378 6.628 2.9173 5.89442C3.2101 5.18677 2.82856 3.97906 3.40381 3.40381C3.97906 2.82856 5.18677 3.2101 5.89443 2.9173C6.62802 2.61377 7.21844 1.5 8.00002 1.5C8.78159 1.5 9.372 2.61378 10.1056 2.9173C10.8132 3.2101 12.0209 2.82856 12.5962 3.40381C13.1714 3.97906 12.7899 5.18677 13.0827 5.89443C13.3862 6.62802 14.5 7.21844 14.5 8.00002C14.5 8.78159 13.3862 9.372 13.0827 10.1056C12.7899 10.8132 13.1714 12.0209 12.5962 12.5962C12.0209 13.1714 10.8132 12.7899 10.1056 13.0827C9.37198 13.3862 8.78156 14.5 7.99998 14.5C7.21841 14.5 6.628 13.3862 5.89442 13.0827C5.18677 12.7899 3.97906 13.1714 3.40381 12.5962Z" stroke="#63A4FF" stroke-width="2"/>
<path d="M10.75 6.5L7.08331 10L5.25 8.25" stroke="#63A4FF" stroke-width="2" stroke-linecap="round" stroke-linejoin="round"/>
</svg>