<svg width="144" height="144" viewBox="0 0 144 144" fill="none" xmlns="http://www.w3.org/2000/svg">
<ellipse cx="38.7" cy="45.9" rx="31.5" ry="31.5" fill="url(#paint0_linear_1482_682)"/>
<g filter="url(#filter0_b_1482_682)">
<path fill-rule="evenodd" clip-rule="evenodd" d="M60.2734 23.1991C65.7075 4.26698 92.6922 4.26698 98.1263 23.1991C99.8616 29.245 106.109 32.8312 112.243 31.3025C131.45 26.5156 144.942 49.7514 131.169 63.8966C126.771 68.4138 126.771 75.5862 131.169 80.1034C144.942 94.2486 131.45 117.484 112.243 112.698C106.109 111.169 99.8616 114.755 98.1263 120.801C92.6922 139.733 65.7075 139.733 60.2734 120.801C58.5381 114.755 52.2909 111.169 46.1572 112.698C26.9502 117.484 13.4578 94.2486 27.2307 80.1034C31.6291 75.5862 31.6291 68.4138 27.2307 63.8966C13.4578 49.7514 26.9502 26.5156 46.1572 31.3025C52.2909 32.8312 58.5381 29.245 60.2734 23.1991Z" fill="#62E3C2" fill-opacity="0.35"/>
<path fill-rule="evenodd" clip-rule="evenodd" d="M60.2734 23.1991C65.7075 4.26698 92.6922 4.26698 98.1263 23.1991C99.8616 29.245 106.109 32.8312 112.243 31.3025C131.45 26.5156 144.942 49.7514 131.169 63.8966C126.771 68.4138 126.771 75.5862 131.169 80.1034C144.942 94.2486 131.45 117.484 112.243 112.698C106.109 111.169 99.8616 114.755 98.1263 120.801C92.6922 139.733 65.7075 139.733 60.2734 120.801C58.5381 114.755 52.2909 111.169 46.1572 112.698C26.9502 117.484 13.4578 94.2486 27.2307 80.1034C31.6291 75.5862 31.6291 68.4138 27.2307 63.8966C13.4578 49.7514 26.9502 26.5156 46.1572 31.3025C52.2909 32.8312 58.5381 29.245 60.2734 23.1991Z" stroke="url(#paint1_linear_1482_682)" stroke-width="0.1" stroke-linecap="round"/>
</g>
<g filter="url(#filter1_d_1482_682)">
<path fill-rule="evenodd" clip-rule="evenodd" d="M105.277 58.5831C106.684 56.932 106.456 54.478 104.768 53.1021C103.08 51.7262 100.571 51.9493 99.1641 53.6004L80.7891 75.1666C78.8219 77.4754 77.6139 78.8785 76.6187 79.7575C76.1572 80.1651 75.8834 80.3275 75.7522 80.3896C75.7256 80.4023 75.7066 80.4099 75.6946 80.4142C75.6826 80.4099 75.6636 80.4023 75.6369 80.3896C75.5057 80.3275 75.2319 80.1651 74.7704 79.7575C73.7752 78.8785 72.5672 77.4754 70.6001 75.1666L62.8355 66.0536C61.4287 64.4025 58.9198 64.1794 57.2316 65.5553C55.5434 66.9313 55.3153 69.3852 56.7221 71.0363L64.6561 80.3482C66.3987 82.3939 67.9697 84.2381 69.4371 85.5341C71.0336 86.9442 73.0447 88.2 75.6946 88.2C78.3445 88.2 80.3555 86.9442 81.9521 85.5341C83.4195 84.2381 84.9904 82.3939 86.733 80.3483L105.277 58.5831Z" fill="url(#paint2_linear_1482_682)"/>
</g>
<defs>
<filter id="filter0_b_1482_682" x="-2.45044" y="-15.05" width="163.301" height="174.1" filterUnits="userSpaceOnUse" color-interpolation-filters="sRGB">
<feFlood flood-opacity="0" result="BackgroundImageFix"/>
<feGaussianBlur in="BackgroundImage" stdDeviation="12"/>
<feComposite in2="SourceAlpha" operator="in" result="effect1_backgroundBlur_1482_682"/>
<feBlend mode="normal" in="SourceGraphic" in2="effect1_backgroundBlur_1482_682" result="shape"/>
</filter>
<filter id="filter1_d_1482_682" x="52.7998" y="49.2" width="66.3999" height="52" filterUnits="userSpaceOnUse" color-interpolation-filters="sRGB">
<feFlood flood-opacity="0" result="BackgroundImageFix"/>
<feColorMatrix in="SourceAlpha" type="matrix" values="0 0 0 0 0 0 0 0 0 0 0 0 0 0 0 0 0 0 127 0" result="hardAlpha"/>
<feOffset dx="5" dy="5"/>
<feGaussianBlur stdDeviation="4"/>
<feColorMatrix type="matrix" values="0 0 0 0 0.384314 0 0 0 0 0.890196 0 0 0 0 0.760784 0 0 0 0.5 0"/>
<feBlend mode="normal" in2="BackgroundImageFix" result="effect1_dropShadow_1482_682"/>
<feBlend mode="normal" in="SourceGraphic" in2="effect1_dropShadow_1482_682" result="shape"/>
</filter>
<linearGradient id="paint0_linear_1482_682" x1="7.19995" y1="77.4" x2="71.5424" y2="15.8022" gradientUnits="userSpaceOnUse">
<stop stop-color="#009A73"/>
<stop offset="1" stop-color="#1BF4C2"/>
</linearGradient>
<linearGradient id="paint1_linear_1482_682" x1="21.5999" y1="9" x2="147.148" y2="123.67" gradientUnits="userSpaceOnUse">
<stop stop-color="white" stop-opacity="0.25"/>
<stop offset="1" stop-color="white" stop-opacity="0"/>
</linearGradient>
<linearGradient id="paint2_linear_1482_682" x1="81.4242" y1="95.8696" x2="128.73" y2="30.9493" gradientUnits="userSpaceOnUse">
<stop stop-color="white"/>
<stop offset="1" stop-color="white" stop-opacity="0.2"/>
</linearGradient>
</defs>
</svg>
