<svg width="40" height="40" viewBox="0 0 40 40" fill="none" xmlns="http://www.w3.org/2000/svg">
<rect width="40" height="40" rx="5" fill="white"/>
<path d="M20 23.5156C21.9416 23.5156 23.5156 21.9416 23.5156 20C23.5156 18.0584 21.9416 16.4844 20 16.4844C18.0584 16.4844 16.4844 18.0584 16.4844 20C16.4844 21.9416 18.0584 23.5156 20 23.5156Z" stroke="black" stroke-width="1.5" stroke-linecap="round" stroke-linejoin="round"/>
<path d="M24.667 27.0312C23.1009 28.071 21.2324 28.558 19.3579 28.415C17.4835 28.2719 15.7105 27.507 14.3203 26.2416C12.9301 24.9761 12.0024 23.2827 11.6842 21.4299C11.3661 19.5772 11.6758 17.6712 12.5642 16.0145C13.4526 14.3578 14.8688 13.0452 16.5882 12.2851C18.3075 11.5249 20.2314 11.3607 22.0547 11.8185C23.878 12.2763 25.4962 13.3298 26.6525 14.812C27.8088 16.2942 28.4371 18.1201 28.4375 20C28.4375 21.9424 27.7344 23.5156 25.9766 23.5156C24.2188 23.5156 23.5156 21.9424 23.5156 20V16.4843" stroke="black" stroke-width="1.5" stroke-linecap="round" stroke-linejoin="round"/>
</svg>
