<svg width="106" height="106" viewBox="0 0 106 106" fill="none" xmlns="http://www.w3.org/2000/svg">
<path d="M53.4229 0.508761L54.3147 24.7872C54.8604 39.6407 66.6217 51.5548 81.2774 52.1001L105.932 53.0175L81.2777 53.9267C66.6222 54.4671 54.8648 66.3773 54.3242 81.2306L53.4404 105.509L52.5486 81.2303C52.0029 66.3768 40.2416 54.4627 25.5859 53.9174L0.931633 53L25.5856 52.0908C40.2411 51.5504 51.9984 39.6402 52.5391 24.7869L53.4229 0.508761Z" fill="black"/>
<path d="M53.4229 0.508761L54.3147 24.7872C54.8604 39.6407 66.6217 51.5548 81.2774 52.1001L105.932 53.0175L81.2777 53.9267C66.6222 54.4671 54.8648 66.3773 54.3242 81.2306L53.4404 105.509L52.5486 81.2303C52.0029 66.3768 40.2416 54.4627 25.5859 53.9174L0.931633 53L25.5856 52.0908C40.2411 51.5504 51.9984 39.6402 52.5391 24.7869L53.4229 0.508761Z" fill="url(#paint0_linear_180_16819)"/>
<path d="M53.4229 0.508761L54.3147 24.7872C54.8604 39.6407 66.6217 51.5548 81.2774 52.1001L105.932 53.0175L81.2777 53.9267C66.6222 54.4671 54.8648 66.3773 54.3242 81.2306L53.4404 105.509L52.5486 81.2303C52.0029 66.3768 40.2416 54.4627 25.5859 53.9174L0.931633 53L25.5856 52.0908C40.2411 51.5504 51.9984 39.6402 52.5391 24.7869L53.4229 0.508761Z" fill="url(#paint1_linear_180_16819)"/>
<path d="M53.4229 0.508761L54.3147 24.7872C54.8604 39.6407 66.6217 51.5548 81.2774 52.1001L105.932 53.0175L81.2777 53.9267C66.6222 54.4671 54.8648 66.3773 54.3242 81.2306L53.4404 105.509L52.5486 81.2303C52.0029 66.3768 40.2416 54.4627 25.5859 53.9174L0.931633 53L25.5856 52.0908C40.2411 51.5504 51.9984 39.6402 52.5391 24.7869L53.4229 0.508761Z" fill="url(#paint2_linear_180_16819)"/>
<path d="M79.324 7.54671L68.1192 29.0204C61.2641 42.1579 65.574 58.4339 77.9997 66.333L98.9024 79.621L77.0988 67.9147C64.1377 60.9558 48.0779 65.3103 40.282 77.8971L27.5392 98.4707L38.7441 76.9971C45.5992 63.8595 41.2892 47.5835 28.8636 39.6845L7.96085 26.3964L29.7644 38.1028C42.7256 45.0616 58.7854 40.7072 66.5813 28.1203L79.324 7.54671Z" fill="black"/>
<path d="M79.324 7.54671L68.1192 29.0204C61.2641 42.1579 65.574 58.4339 77.9997 66.333L98.9024 79.621L77.0988 67.9147C64.1377 60.9558 48.0779 65.3103 40.282 77.8971L27.5392 98.4707L38.7441 76.9971C45.5992 63.8595 41.2892 47.5835 28.8636 39.6845L7.96085 26.3964L29.7644 38.1028C42.7256 45.0616 58.7854 40.7072 66.5813 28.1203L79.324 7.54671Z" fill="url(#paint3_linear_180_16819)"/>
<path d="M79.324 7.54671L68.1192 29.0204C61.2641 42.1579 65.574 58.4339 77.9997 66.333L98.9024 79.621L77.0988 67.9147C64.1377 60.9558 48.0779 65.3103 40.282 77.8971L27.5392 98.4707L38.7441 76.9971C45.5992 63.8595 41.2892 47.5835 28.8636 39.6845L7.96085 26.3964L29.7644 38.1028C42.7256 45.0616 58.7854 40.7072 66.5813 28.1203L79.324 7.54671Z" fill="url(#paint4_linear_180_16819)"/>
<path d="M79.324 7.54671L68.1192 29.0204C61.2641 42.1579 65.574 58.4339 77.9997 66.333L98.9024 79.621L77.0988 67.9147C64.1377 60.9558 48.0779 65.3103 40.282 77.8971L27.5392 98.4707L38.7441 76.9971C45.5992 63.8595 41.2892 47.5835 28.8636 39.6845L7.96085 26.3964L29.7644 38.1028C42.7256 45.0616 58.7854 40.7072 66.5813 28.1203L79.324 7.54671Z" fill="url(#paint5_linear_180_16819)"/>
<path d="M98.2874 26.7662L77.9881 39.6813C65.5691 47.5826 61.2729 63.8594 68.139 76.9957L79.6893 99.0939L66.5784 77.9087C58.7846 65.3152 42.7255 60.9471 29.7632 67.8949L8.57591 79.2513L28.8751 66.3363C41.2941 58.4349 45.5904 42.1581 38.7243 29.0218L27.1739 6.92364L40.2849 28.1088C48.0787 40.7023 64.1377 45.0704 77.1001 38.1226L98.2874 26.7662Z" fill="black"/>
<path d="M98.2874 26.7662L77.9881 39.6813C65.5691 47.5826 61.2729 63.8594 68.139 76.9957L79.6893 99.0939L66.5784 77.9087C58.7846 65.3152 42.7255 60.9471 29.7632 67.8949L8.57591 79.2513L28.8751 66.3363C41.2941 58.4349 45.5904 42.1581 38.7243 29.0218L27.1739 6.92364L40.2849 28.1088C48.0787 40.7023 64.1377 45.0704 77.1001 38.1226L98.2874 26.7662Z" fill="url(#paint6_linear_180_16819)"/>
<path d="M98.2874 26.7662L77.9881 39.6813C65.5691 47.5826 61.2729 63.8594 68.139 76.9957L79.6893 99.0939L66.5784 77.9087C58.7846 65.3152 42.7255 60.9471 29.7632 67.8949L8.57591 79.2513L28.8751 66.3363C41.2941 58.4349 45.5904 42.1581 38.7243 29.0218L27.1739 6.92364L40.2849 28.1088C48.0787 40.7023 64.1377 45.0704 77.1001 38.1226L98.2874 26.7662Z" fill="url(#paint7_linear_180_16819)"/>
<path d="M98.2874 26.7662L77.9881 39.6813C65.5691 47.5826 61.2729 63.8594 68.139 76.9957L79.6893 99.0939L66.5784 77.9087C58.7846 65.3152 42.7255 60.9471 29.7632 67.8949L8.57591 79.2513L28.8751 66.3363C41.2941 58.4349 45.5904 42.1581 38.7243 29.0218L27.1739 6.92364L40.2849 28.1088C48.0787 40.7023 64.1377 45.0704 77.1001 38.1226L98.2874 26.7662Z" fill="url(#paint8_linear_180_16819)"/>
<defs>
<linearGradient id="paint0_linear_180_16819" x1="0.92277" y1="0.013889" x2="64.8928" y2="125.891" gradientUnits="userSpaceOnUse">
<stop stop-color="#92ECF2"/>
<stop offset="1" stop-color="#63A4FF"/>
</linearGradient>
<linearGradient id="paint1_linear_180_16819" x1="105.944" y1="124.846" x2="66.9079" y2="-28.5531" gradientUnits="userSpaceOnUse">
<stop stop-color="#FFC988"/>
<stop offset="1" stop-color="#F9E788"/>
</linearGradient>
<linearGradient id="paint2_linear_180_16819" x1="77.6536" y1="28.7692" x2="25.2034" y2="71.2138" gradientUnits="userSpaceOnUse">
<stop stop-color="#B0A3F6"/>
<stop offset="0.104671" stop-color="#E7C9A6"/>
<stop offset="0.262358" stop-color="#FCD788"/>
<stop offset="0.407481" stop-color="#DCBCBC"/>
<stop offset="0.53125" stop-color="#BA9EF5"/>
<stop offset="0.755208" stop-color="#75BFFA"/>
<stop offset="1" stop-color="#62E3C2"/>
</linearGradient>
<linearGradient id="paint3_linear_180_16819" x1="0.92277" y1="0.013889" x2="64.8928" y2="125.891" gradientUnits="userSpaceOnUse">
<stop stop-color="#92ECF2"/>
<stop offset="1" stop-color="#63A4FF"/>
</linearGradient>
<linearGradient id="paint4_linear_180_16819" x1="105.944" y1="124.846" x2="66.9079" y2="-28.5531" gradientUnits="userSpaceOnUse">
<stop stop-color="#FFC988"/>
<stop offset="1" stop-color="#F9E788"/>
</linearGradient>
<linearGradient id="paint5_linear_180_16819" x1="77.6536" y1="28.7692" x2="25.2034" y2="71.2138" gradientUnits="userSpaceOnUse">
<stop stop-color="#B0A3F6"/>
<stop offset="0.104671" stop-color="#E7C9A6"/>
<stop offset="0.262358" stop-color="#FCD788"/>
<stop offset="0.407481" stop-color="#DCBCBC"/>
<stop offset="0.53125" stop-color="#BA9EF5"/>
<stop offset="0.755208" stop-color="#75BFFA"/>
<stop offset="1" stop-color="#62E3C2"/>
</linearGradient>
<linearGradient id="paint6_linear_180_16819" x1="0.92277" y1="0.013889" x2="64.8928" y2="125.891" gradientUnits="userSpaceOnUse">
<stop stop-color="#92ECF2"/>
<stop offset="1" stop-color="#63A4FF"/>
</linearGradient>
<linearGradient id="paint7_linear_180_16819" x1="105.944" y1="124.846" x2="66.9079" y2="-28.5531" gradientUnits="userSpaceOnUse">
<stop stop-color="#FFC988"/>
<stop offset="1" stop-color="#F9E788"/>
</linearGradient>
<linearGradient id="paint8_linear_180_16819" x1="77.6536" y1="28.7692" x2="25.2034" y2="71.2138" gradientUnits="userSpaceOnUse">
<stop stop-color="#B0A3F6"/>
<stop offset="0.104671" stop-color="#E7C9A6"/>
<stop offset="0.262358" stop-color="#FCD788"/>
<stop offset="0.407481" stop-color="#DCBCBC"/>
<stop offset="0.53125" stop-color="#BA9EF5"/>
<stop offset="0.755208" stop-color="#75BFFA"/>
<stop offset="1" stop-color="#62E3C2"/>
</linearGradient>
</defs>
</svg>
