<svg width="240" height="240" viewBox="0 0 240 240" fill="none" xmlns="http://www.w3.org/2000/svg">
<rect width="240" height="240" rx="16" fill="url(#paint0_linear_180_14049)"/>
<g clip-path="url(#clip0_180_14049)">
<path d="M141.03 97.7002C111.048 67.7174 75.7612 54.8921 65.3686 71.0114C65.0411 71.5191 65.696 72.1379 66.2202 71.6136C77.1966 60.6371 106.52 72.1631 131.714 97.3578C144.887 110.53 162.203 133.819 161.581 151.949C159.257 168.199 129.157 149.726 117.775 142.05L114.248 145.488C113.84 145.886 113.653 146.46 113.75 147.023L115.863 159.342C138.085 174.942 160.618 180.915 170.038 171.495C182.406 159.127 169.419 126.088 141.03 97.7002Z" fill="#F4D44E"/>
<path d="M141.03 97.7002C111.048 67.7174 75.7612 54.8921 65.3686 71.0114C65.0411 71.5191 65.696 72.1379 66.2202 71.6136C77.1966 60.6371 106.52 72.1631 131.714 97.3578C144.887 110.53 162.203 133.819 161.581 151.949C159.257 168.199 129.157 149.726 117.775 142.05L114.248 145.488C113.84 145.886 113.653 146.46 113.75 147.023L115.863 159.342C138.085 174.942 160.618 180.915 170.038 171.495C182.406 159.127 169.419 126.088 141.03 97.7002Z" fill="url(#paint1_linear_180_14049)"/>
<path d="M141.03 97.7002C111.048 67.7174 75.7612 54.8921 65.3686 71.0114C65.0411 71.5191 65.696 72.1379 66.2202 71.6136C77.1966 60.6371 106.52 72.1631 131.714 97.3578C144.887 110.53 162.203 133.819 161.581 151.949C159.257 168.199 129.157 149.726 117.775 142.05L114.248 145.488C113.84 145.886 113.653 146.46 113.75 147.023L115.863 159.342C138.085 174.942 160.618 180.915 170.038 171.495C182.406 159.127 169.419 126.088 141.03 97.7002Z" fill="#FFCE65" fill-opacity="0.2"/>
<path d="M157.885 167.055C142.023 169.883 114.986 149.313 114.013 148.568L115.861 159.342C138.083 174.942 160.616 180.915 170.036 171.495C176.947 164.584 175.938 151.216 168.751 135.812C170.997 148.988 170.732 164.764 157.885 167.055Z" fill="#F5EB88"/>
<path d="M101.425 114.986L108.368 129.053C108.62 129.565 109.108 129.919 109.673 130.001L125.197 132.257C126.619 132.464 127.187 134.212 126.158 135.215L114.925 146.165C114.516 146.563 114.33 147.137 114.427 147.7L117.078 163.161C117.321 164.577 115.835 165.658 114.562 164.989L100.677 157.689C100.172 157.423 99.5688 157.423 99.0635 157.689L85.1788 164.989C83.9067 165.657 82.4197 164.577 82.6625 163.161L85.3142 147.7C85.4106 147.137 85.224 146.563 84.8154 146.165L73.5824 135.215C72.5532 134.212 73.121 132.464 74.5436 132.257L90.0672 130.001C90.632 129.919 91.1204 129.565 91.3729 129.053L98.3153 114.986C98.951 113.697 100.789 113.697 101.425 114.986Z" fill="#F9E788"/>
<path d="M101.425 114.986L108.368 129.053C108.62 129.565 109.108 129.919 109.673 130.001L125.197 132.257C126.619 132.464 127.187 134.212 126.158 135.215L114.925 146.165C114.516 146.563 114.33 147.137 114.427 147.7L117.078 163.161C117.321 164.577 115.835 165.658 114.562 164.989L100.677 157.689C100.172 157.423 99.5688 157.423 99.0635 157.689L85.1788 164.989C83.9067 165.657 82.4197 164.577 82.6625 163.161L85.3142 147.7C85.4106 147.137 85.224 146.563 84.8154 146.165L73.5824 135.215C72.5532 134.212 73.121 132.464 74.5436 132.257L90.0672 130.001C90.632 129.919 91.1204 129.565 91.3729 129.053L98.3153 114.986C98.951 113.697 100.789 113.697 101.425 114.986Z" fill="url(#paint2_linear_180_14049)"/>
<path d="M95.4707 144.406C95.5672 143.844 95.3806 143.27 94.9722 142.871C83.4922 131.513 83.4276 132.015 83.2441 130.993L74.5436 132.258C73.121 132.465 72.5532 134.213 73.5824 135.216L84.8154 146.165C85.2242 146.564 85.4106 147.138 85.3141 147.7L82.6625 163.161C82.4196 164.578 83.9065 165.658 85.1787 164.989L92.959 160.899C92.5165 159.968 92.865 160.292 95.4707 144.406Z" fill="#FFCE65"/>
</g>
<defs>
<linearGradient id="paint0_linear_180_14049" x1="-3.91155e-07" y1="-1.11111" x2="146.226" y2="286.556" gradientUnits="userSpaceOnUse">
<stop stop-color="#92ECF2"/>
<stop offset="1" stop-color="#63A4FF"/>
</linearGradient>
<linearGradient id="paint1_linear_180_14049" x1="174.718" y1="196.616" x2="132.207" y2="33.4809" gradientUnits="userSpaceOnUse">
<stop stop-color="#FFC988"/>
<stop offset="1" stop-color="#F9E788"/>
</linearGradient>
<linearGradient id="paint2_linear_180_14049" x1="126.684" y1="174.612" x2="108.422" y2="99.4511" gradientUnits="userSpaceOnUse">
<stop stop-color="#FFDE88"/>
<stop offset="1" stop-color="#E9F988"/>
</linearGradient>
<clipPath id="clip0_180_14049">
<rect width="112" height="112" fill="white" transform="translate(64.0008 63.9997)"/>
</clipPath>
</defs>
</svg>
