<svg width="32" height="32" viewBox="0 0 32 32" fill="none" xmlns="http://www.w3.org/2000/svg">
<path d="M27 0H5C2.23858 0 0 2.23858 0 5V27C0 29.7614 2.23858 32 5 32H27C29.7614 32 32 29.7614 32 27V5C32 2.23858 29.7614 0 27 0Z" fill="#5865F2"/>
<g clip-path="url(#clip0_1376_41968)">
<path d="M22.4686 9.97265C21.2789 9.41894 20.0031 9.011 18.6691 8.77735C18.6448 8.77284 18.6205 8.78411 18.608 8.80665C18.4439 9.10265 18.2622 9.48881 18.1349 9.79233C16.7002 9.57446 15.2728 9.57446 13.8674 9.79233C13.7401 9.48206 13.5518 9.10265 13.387 8.80665C13.3744 8.78486 13.3502 8.77359 13.3259 8.77735C11.9927 9.01025 10.7168 9.4182 9.52634 9.97265C9.51604 9.97716 9.5072 9.98468 9.50134 9.99444C7.08136 13.6615 6.41843 17.2384 6.74364 20.7709C6.74512 20.7882 6.75468 20.8048 6.76792 20.8153C8.36456 22.0045 9.91117 22.7265 11.4291 23.2051C11.4533 23.2126 11.4791 23.2036 11.4945 23.1833C11.8536 22.686 12.1737 22.1616 12.4481 21.6101C12.4643 21.5778 12.4488 21.5395 12.4157 21.5267C11.9081 21.3314 11.4246 21.0932 10.9596 20.8228C10.9228 20.801 10.9199 20.7476 10.9537 20.7221C11.0516 20.6477 11.1495 20.5703 11.2429 20.4922C11.2598 20.4779 11.2834 20.4749 11.3033 20.4839C14.3582 21.8986 17.6655 21.8986 20.6844 20.4839C20.7042 20.4742 20.7278 20.4772 20.7454 20.4914C20.8389 20.5696 20.9368 20.6477 21.0353 20.7221C21.0692 20.7476 21.067 20.801 21.0302 20.8228C20.5652 21.0985 20.0818 21.3314 19.5733 21.526C19.5402 21.5388 19.5255 21.5778 19.5417 21.6101C19.822 22.1608 20.1421 22.6852 20.4945 23.1826C20.5093 23.2036 20.5357 23.2126 20.56 23.2051C22.0853 22.7265 23.6319 22.0045 25.2285 20.8153C25.2425 20.8048 25.2513 20.789 25.2528 20.7717C25.642 16.6877 24.6009 13.1401 22.4929 9.99518C22.4877 9.98468 22.4789 9.97716 22.4686 9.97265ZM12.9043 18.62C11.9846 18.62 11.2267 17.7635 11.2267 16.7117C11.2267 15.6599 11.9699 14.8034 12.9043 14.8034C13.8461 14.8034 14.5966 15.6674 14.5819 16.7117C14.5819 17.7635 13.8387 18.62 12.9043 18.62ZM19.1069 18.62C18.1872 18.62 17.4293 17.7635 17.4293 16.7117C17.4293 15.6599 18.1724 14.8034 19.1069 14.8034C20.0487 14.8034 20.7991 15.6674 20.7844 16.7117C20.7844 17.7635 20.0487 18.62 19.1069 18.62Z" fill="white"/>
</g>
<defs>
<clipPath id="clip0_1376_41968">
<rect width="18.6667" height="14.6667" fill="white" transform="translate(6.6665 8.66663)"/>
</clipPath>
</defs>
</svg>
