<svg width="54" height="40" viewBox="0 0 54 40" fill="none" xmlns="http://www.w3.org/2000/svg">
<g clip-path="url(#clip0_180_14610)">
<path d="M0.333252 0H53.6666V40H0.333252V0Z" fill="#EE1C25"/>
<path d="M0.333252 0H53.6666V26.6667H0.333252V0Z" fill="#0B4EA2"/>
<path d="M0.333252 0H53.6666V13.3333H0.333252V0Z" fill="white"/>
<path d="M19.7499 30.9C16.1665 29.175 11.0332 25.7417 11.0332 18.9667C11.0332 12.1834 11.3665 9.10004 11.3665 9.10004H28.1415C28.1415 9.10004 28.4665 12.1834 28.4665 18.9667C28.4665 25.75 23.3332 29.1667 19.7499 30.9Z" fill="white"/>
<path d="M19.75 30C16.4583 28.4167 11.75 25.2667 11.75 19.05C11.75 12.8333 12.05 10 12.05 10H27.45C27.45 10 27.7417 12.8333 27.7417 19.05C27.75 25.275 23.0417 28.4167 19.75 30Z" fill="#EE1C25"/>
<path d="M20.45 17.4166C21.3417 17.4332 23.0833 17.4666 24.625 16.9499C24.625 16.9499 24.5917 17.5083 24.5917 18.1499C24.5917 18.7916 24.6333 19.3499 24.6333 19.3499C23.2167 18.8749 21.4583 18.8666 20.45 18.8749V22.3083H19.05V18.8749C18.05 18.8666 16.2917 18.8749 14.875 19.3499C14.875 19.3499 14.9167 18.7916 14.9167 18.1499C14.9167 17.4999 14.875 16.9499 14.875 16.9499C16.4167 17.4666 18.1583 17.4332 19.0417 17.4166V15.2583C18.2333 15.2583 17.0667 15.2916 15.7417 15.7332C15.7417 15.7332 15.7833 15.1832 15.7833 14.5332C15.7833 13.8916 15.7417 13.3332 15.7417 13.3332C17.0667 13.7749 18.2333 13.8166 19.0417 13.8082C19 12.4416 18.6 10.7249 18.6 10.7249C18.6 10.7249 19.425 10.7832 19.75 10.7832C20.0833 10.7832 20.9 10.7249 20.9 10.7249C20.9 10.7249 20.5 12.4416 20.4583 13.8082C21.2667 13.8166 22.4333 13.7749 23.7583 13.3332C23.7583 13.3332 23.7167 13.8916 23.7167 14.5332C23.7167 15.1832 23.7583 15.7332 23.7583 15.7332C22.6904 15.3889 21.5717 15.2283 20.45 15.2583V17.4249V17.4166Z" fill="white"/>
<path d="M19.7499 21.9417C18.0916 21.9417 17.2082 24.2333 17.2082 24.2333C17.2082 24.2333 16.7082 23.15 15.3582 23.15C14.4416 23.15 13.7749 23.9583 13.3416 24.7167C15.0082 27.3583 17.6666 28.9917 19.7499 30C21.8332 29 24.4999 27.3583 26.1582 24.7167C25.7249 23.9667 25.0582 23.15 24.1416 23.15C22.7916 23.15 22.2915 24.2333 22.2915 24.2333C22.2915 24.2333 21.4166 21.9417 19.7499 21.9417Z" fill="#0B4EA2"/>
</g>
<defs>
<clipPath id="clip0_180_14610">
<rect width="53.3333" height="40" fill="white" transform="translate(0.333252)"/>
</clipPath>
</defs>
</svg>
