<svg width="146" height="146" viewBox="0 0 146 146" fill="none" xmlns="http://www.w3.org/2000/svg">
<mask id="mask0_146_14929" style="mask-type:alpha" maskUnits="userSpaceOnUse" x="9" y="9" width="128" height="128">
<path d="M72.5702 9.03107L73.6447 38.4147C74.3021 56.3915 88.5341 70.8086 106.272 71.4657L136.11 72.571L106.272 73.6763C88.5342 74.3334 74.3021 88.7504 73.6447 106.727L72.5702 136.111L71.4957 106.727C70.8383 88.7504 56.6062 74.3334 38.8688 73.6763L9.03027 72.571L38.8687 71.4657C56.6062 70.8086 70.8383 56.3916 71.4957 38.4147L72.5702 9.03107Z" fill="black"/>
<path d="M72.5702 9.03107L73.6447 38.4147C74.3021 56.3915 88.5341 70.8086 106.272 71.4657L136.11 72.571L106.272 73.6763C88.5342 74.3334 74.3021 88.7504 73.6447 106.727L72.5702 136.111L71.4957 106.727C70.8383 88.7504 56.6062 74.3334 38.8688 73.6763L9.03027 72.571L38.8687 71.4657C56.6062 70.8086 70.8383 56.3916 71.4957 38.4147L72.5702 9.03107Z" fill="url(#paint0_linear_146_14929)"/>
<path d="M72.5702 9.03107L73.6447 38.4147C74.3021 56.3915 88.5341 70.8086 106.272 71.4657L136.11 72.571L106.272 73.6763C88.5342 74.3334 74.3021 88.7504 73.6447 106.727L72.5702 136.111L71.4957 106.727C70.8383 88.7504 56.6062 74.3334 38.8688 73.6763L9.03027 72.571L38.8687 71.4657C56.6062 70.8086 70.8383 56.3916 71.4957 38.4147L72.5702 9.03107Z" fill="url(#paint1_linear_146_14929)"/>
<path d="M103.917 17.5438L90.3512 43.5353C82.0519 59.4368 87.2648 79.1345 102.302 88.6921L127.597 104.77L101.211 90.6066C85.5259 82.1871 66.0882 87.4604 56.6503 102.696L41.2238 127.598L54.7892 101.607C63.0885 85.7051 57.8755 66.0074 42.8386 56.4497L17.543 40.3717L43.9292 54.5353C59.6144 62.9548 79.0522 57.6815 88.4901 42.4462L103.917 17.5438Z" fill="black"/>
<path d="M103.917 17.5438L90.3512 43.5353C82.0519 59.4368 87.2648 79.1345 102.302 88.6921L127.597 104.77L101.211 90.6066C85.5259 82.1871 66.0882 87.4604 56.6503 102.696L41.2238 127.598L54.7892 101.607C63.0885 85.7051 57.8755 66.0074 42.8386 56.4497L17.543 40.3717L43.9292 54.5353C59.6144 62.9548 79.0522 57.6815 88.4901 42.4462L103.917 17.5438Z" fill="url(#paint2_linear_146_14929)"/>
<path d="M103.917 17.5438L90.3512 43.5353C82.0519 59.4368 87.2648 79.1345 102.302 88.6921L127.597 104.77L101.211 90.6066C85.5259 82.1871 66.0882 87.4604 56.6503 102.696L41.2238 127.598L54.7892 101.607C63.0885 85.7051 57.8755 66.0074 42.8386 56.4497L17.543 40.3717L43.9292 54.5353C59.6144 62.9548 79.0522 57.6815 88.4901 42.4462L103.917 17.5438Z" fill="url(#paint3_linear_146_14929)"/>
<path d="M126.864 40.801L102.293 56.436C87.2611 66.0014 82.0581 85.7018 90.3654 101.599L104.34 128.342L88.4764 102.704C79.0462 87.4642 59.6111 82.1808 43.9217 90.5922L18.2767 104.341L42.8471 88.706C57.8793 79.1406 63.0823 59.4402 54.775 43.5429L40.8002 16.8002L56.6639 42.4376C66.0941 57.6777 85.5292 62.9612 101.219 54.5497L126.864 40.801Z" fill="black"/>
<path d="M126.864 40.801L102.293 56.436C87.2611 66.0014 82.0581 85.7018 90.3654 101.599L104.34 128.342L88.4764 102.704C79.0462 87.4642 59.6111 82.1808 43.9217 90.5922L18.2767 104.341L42.8471 88.706C57.8793 79.1406 63.0823 59.4402 54.775 43.5429L40.8002 16.8002L56.6639 42.4376C66.0941 57.6777 85.5292 62.9612 101.219 54.5497L126.864 40.801Z" fill="url(#paint4_linear_146_14929)"/>
<path d="M126.864 40.801L102.293 56.436C87.2611 66.0014 82.0581 85.7018 90.3654 101.599L104.34 128.342L88.4764 102.704C79.0462 87.4642 59.6111 82.1808 43.9217 90.5922L18.2767 104.341L42.8471 88.706C57.8793 79.1406 63.0823 59.4402 54.775 43.5429L40.8002 16.8002L56.6639 42.4376C66.0941 57.6777 85.5292 62.9612 101.219 54.5497L126.864 40.801Z" fill="url(#paint5_linear_146_14929)"/>
</mask>
<g mask="url(#mask0_146_14929)">
<g filter="url(#filter0_f_146_14929)">
<ellipse cx="45.0639" cy="115.37" rx="32.104" ry="25.1057" transform="rotate(164.776 45.0639 115.37)" fill="#33D7AB"/>
<ellipse cx="45.0639" cy="115.37" rx="32.104" ry="25.1057" transform="rotate(164.776 45.0639 115.37)" fill="url(#paint6_linear_146_14929)"/>
</g>
<g filter="url(#filter1_f_146_14929)">
<circle cx="87.6683" cy="88.0603" r="58.2936" transform="rotate(180 87.6683 88.0603)" fill="#7F9FFF"/>
<circle cx="87.6683" cy="88.0603" r="58.2936" transform="rotate(180 87.6683 88.0603)" fill="url(#paint7_linear_146_14929)"/>
</g>
<g filter="url(#filter2_f_146_14929)">
<ellipse cx="61.4905" cy="64.9596" rx="45.5975" ry="27.237" transform="rotate(-130.75 61.4905 64.9596)" fill="#FED088"/>
<ellipse cx="61.4905" cy="64.9596" rx="45.5975" ry="27.237" transform="rotate(-130.75 61.4905 64.9596)" fill="url(#paint8_linear_146_14929)"/>
</g>
<g filter="url(#filter3_f_146_14929)">
<ellipse cx="19.3739" cy="100.583" rx="49.5105" ry="48.0173" transform="rotate(-177.744 19.3739 100.583)" fill="#CF9DFD"/>
<ellipse cx="19.3739" cy="100.583" rx="49.5105" ry="48.0173" transform="rotate(-177.744 19.3739 100.583)" fill="url(#paint9_linear_146_14929)"/>
</g>
</g>
<defs>
<filter id="filter0_f_146_14929" x="3.38672" y="79.713" width="83.3545" height="71.3132" filterUnits="userSpaceOnUse" color-interpolation-filters="sRGB">
<feFlood flood-opacity="0" result="BackgroundImageFix"/>
<feBlend mode="normal" in="SourceGraphic" in2="BackgroundImageFix" result="shape"/>
<feGaussianBlur stdDeviation="5" result="effect1_foregroundBlur_146_14929"/>
</filter>
<filter id="filter1_f_146_14929" x="9.375" y="9.76675" width="156.587" height="156.587" filterUnits="userSpaceOnUse" color-interpolation-filters="sRGB">
<feFlood flood-opacity="0" result="BackgroundImageFix"/>
<feBlend mode="normal" in="SourceGraphic" in2="BackgroundImageFix" result="shape"/>
<feGaussianBlur stdDeviation="10" result="effect1_foregroundBlur_146_14929"/>
</filter>
<filter id="filter2_f_146_14929" x="10.2705" y="11.1015" width="102.44" height="107.716" filterUnits="userSpaceOnUse" color-interpolation-filters="sRGB">
<feFlood flood-opacity="0" result="BackgroundImageFix"/>
<feBlend mode="normal" in="SourceGraphic" in2="BackgroundImageFix" result="shape"/>
<feGaussianBlur stdDeviation="7.5" result="effect1_foregroundBlur_146_14929"/>
</filter>
<filter id="filter3_f_146_14929" x="-50.1348" y="32.5627" width="139.018" height="136.041" filterUnits="userSpaceOnUse" color-interpolation-filters="sRGB">
<feFlood flood-opacity="0" result="BackgroundImageFix"/>
<feBlend mode="normal" in="SourceGraphic" in2="BackgroundImageFix" result="shape"/>
<feGaussianBlur stdDeviation="10" result="effect1_foregroundBlur_146_14929"/>
</filter>
<linearGradient id="paint0_linear_146_14929" x1="9.03027" y1="8.44273" x2="86.4567" y2="160.762" gradientUnits="userSpaceOnUse">
<stop stop-color="#92ECF2"/>
<stop offset="1" stop-color="#63A4FF"/>
</linearGradient>
<linearGradient id="paint1_linear_146_14929" x1="136.11" y1="159.504" x2="88.8424" y2="-26.1309" gradientUnits="userSpaceOnUse">
<stop stop-color="#FFC988"/>
<stop offset="1" stop-color="#F9E788"/>
</linearGradient>
<linearGradient id="paint2_linear_146_14929" x1="9.03027" y1="8.44273" x2="86.4567" y2="160.762" gradientUnits="userSpaceOnUse">
<stop stop-color="#92ECF2"/>
<stop offset="1" stop-color="#63A4FF"/>
</linearGradient>
<linearGradient id="paint3_linear_146_14929" x1="136.11" y1="159.504" x2="88.8424" y2="-26.1309" gradientUnits="userSpaceOnUse">
<stop stop-color="#FFC988"/>
<stop offset="1" stop-color="#F9E788"/>
</linearGradient>
<linearGradient id="paint4_linear_146_14929" x1="9.03027" y1="8.44273" x2="86.4567" y2="160.762" gradientUnits="userSpaceOnUse">
<stop stop-color="#92ECF2"/>
<stop offset="1" stop-color="#63A4FF"/>
</linearGradient>
<linearGradient id="paint5_linear_146_14929" x1="136.11" y1="159.504" x2="88.8424" y2="-26.1309" gradientUnits="userSpaceOnUse">
<stop stop-color="#FFC988"/>
<stop offset="1" stop-color="#F9E788"/>
</linearGradient>
<linearGradient id="paint6_linear_146_14929" x1="12.9599" y1="90.0314" x2="38.9572" y2="155.432" gradientUnits="userSpaceOnUse">
<stop stop-color="#A8F5E3"/>
<stop offset="1" stop-color="#1DD1A1"/>
</linearGradient>
<linearGradient id="paint7_linear_146_14929" x1="29.3747" y1="29.227" x2="100.408" y2="168.97" gradientUnits="userSpaceOnUse">
<stop stop-color="#92ECF2"/>
<stop offset="1" stop-color="#63A4FF"/>
</linearGradient>
<linearGradient id="paint8_linear_146_14929" x1="107.088" y1="102.224" x2="94.4916" y2="19.4067" gradientUnits="userSpaceOnUse">
<stop stop-color="#FFC988"/>
<stop offset="1" stop-color="#F9E788"/>
</linearGradient>
<linearGradient id="paint9_linear_146_14929" x1="55.8702" y1="156.723" x2="50.9385" y2="26.536" gradientUnits="userSpaceOnUse">
<stop stop-color="#D49DFF"/>
<stop offset="1" stop-color="#A49EED"/>
</linearGradient>
</defs>
</svg>
