<svg width="112" height="112" viewBox="0 0 112 112" fill="none" xmlns="http://www.w3.org/2000/svg">
<g clip-path="url(#clip0_180_14050)">
<path d="M77.0305 33.7002C47.0475 3.71742 11.7612 -9.10789 1.36857 7.01136C1.0411 7.51908 1.69604 8.13792 2.22016 7.61358C13.1966 -3.36286 42.5196 8.16308 67.7144 33.3578C80.8866 46.5301 98.2033 69.8191 97.581 87.9486C95.2574 104.199 65.1565 85.7264 53.7754 78.0498L50.2485 81.4876C49.8396 81.8862 49.6533 82.46 49.7499 83.0226L51.8629 95.3422C74.0846 110.942 96.6178 116.915 106.038 107.495C118.406 95.1274 105.419 62.088 77.0305 33.7002Z" fill="#F4D44E"/>
<path d="M77.0305 33.7002C47.0475 3.71742 11.7612 -9.10789 1.36857 7.01136C1.0411 7.51908 1.69604 8.13792 2.22016 7.61358C13.1966 -3.36286 42.5196 8.16308 67.7144 33.3578C80.8866 46.5301 98.2033 69.8191 97.581 87.9486C95.2574 104.199 65.1565 85.7264 53.7754 78.0498L50.2485 81.4876C49.8396 81.8862 49.6533 82.46 49.7499 83.0226L51.8629 95.3422C74.0846 110.942 96.6178 116.915 106.038 107.495C118.406 95.1274 105.419 62.088 77.0305 33.7002Z" fill="url(#paint0_linear_180_14050)"/>
<path d="M77.0305 33.7002C47.0475 3.71742 11.7612 -9.10789 1.36857 7.01136C1.0411 7.51908 1.69604 8.13792 2.22016 7.61358C13.1966 -3.36286 42.5196 8.16308 67.7144 33.3578C80.8866 46.5301 98.2033 69.8191 97.581 87.9486C95.2574 104.199 65.1565 85.7264 53.7754 78.0498L50.2485 81.4876C49.8396 81.8862 49.6533 82.46 49.7499 83.0226L51.8629 95.3422C74.0846 110.942 96.6178 116.915 106.038 107.495C118.406 95.1274 105.419 62.088 77.0305 33.7002Z" fill="#FFCE65" fill-opacity="0.2"/>
<path d="M93.8853 103.055C78.0227 105.883 50.9858 85.3135 50.0131 84.5684L51.8611 95.3423C74.0826 110.942 96.616 116.915 106.036 107.495C112.947 100.584 111.938 87.2157 104.751 71.8124C106.997 84.9882 106.732 100.764 93.8853 103.055Z" fill="#F5EB88"/>
<path d="M37.4251 50.9859L44.3676 65.0526C44.62 65.5645 45.1085 65.9193 45.6733 66.0014L61.1969 68.2571C62.6192 68.4638 63.1873 70.2119 62.1581 71.2151L50.9253 82.1646C50.5164 82.5631 50.33 83.1369 50.4267 83.6996L53.0784 99.1606C53.3212 100.577 51.8346 101.658 50.5621 100.989L36.6774 93.689C36.1721 93.4234 35.5688 93.4234 35.0635 93.689L21.1788 100.989C19.9067 101.657 18.4197 100.577 18.6625 99.1606L21.3142 83.6996C21.4106 83.1369 21.224 82.5631 20.8154 82.1646L9.58238 71.2151C8.55316 70.2119 9.12103 68.4638 10.5436 68.2571L26.0672 66.0014C26.632 65.9193 27.1204 65.5645 27.3729 65.0526L34.3153 50.9859C34.951 49.6973 36.789 49.6973 37.4251 50.9859Z" fill="#F9E788"/>
<path d="M37.4251 50.9859L44.3676 65.0526C44.62 65.5645 45.1085 65.9193 45.6733 66.0014L61.1969 68.2571C62.6192 68.4638 63.1873 70.2119 62.1581 71.2151L50.9253 82.1646C50.5164 82.5631 50.33 83.1369 50.4267 83.6996L53.0784 99.1606C53.3212 100.577 51.8346 101.658 50.5621 100.989L36.6774 93.689C36.1721 93.4234 35.5688 93.4234 35.0635 93.689L21.1788 100.989C19.9067 101.657 18.4197 100.577 18.6625 99.1606L21.3142 83.6996C21.4106 83.1369 21.224 82.5631 20.8154 82.1646L9.58238 71.2151C8.55316 70.2119 9.12103 68.4638 10.5436 68.2571L26.0672 66.0014C26.632 65.9193 27.1204 65.5645 27.3729 65.0526L34.3153 50.9859C34.951 49.6973 36.789 49.6973 37.4251 50.9859Z" fill="url(#paint1_linear_180_14050)"/>
<path d="M31.4707 80.4063C31.5672 79.8439 31.3806 79.2699 30.9722 78.8714C19.4922 67.5134 19.4276 68.015 19.2441 66.9934L10.5436 68.2578C9.12103 68.4645 8.55316 70.2126 9.58238 71.2158L20.8154 82.1653C21.2242 82.5637 21.4106 83.1377 21.3141 83.7003L18.6625 99.1613C18.4196 100.578 19.9065 101.658 21.1787 100.989L28.959 96.899C28.5165 95.9676 28.865 96.2915 31.4707 80.4063Z" fill="#FFCE65"/>
</g>
<defs>
<linearGradient id="paint0_linear_180_14050" x1="110.718" y1="132.616" x2="68.207" y2="-30.5191" gradientUnits="userSpaceOnUse">
<stop stop-color="#FFC988"/>
<stop offset="1" stop-color="#F9E788"/>
</linearGradient>
<linearGradient id="paint1_linear_180_14050" x1="62.6836" y1="110.612" x2="44.4216" y2="35.4511" gradientUnits="userSpaceOnUse">
<stop stop-color="#FFDE88"/>
<stop offset="1" stop-color="#E9F988"/>
</linearGradient>
<clipPath id="clip0_180_14050">
<rect width="112" height="112" fill="white" transform="translate(0.000762939 -0.000305176)"/>
</clipPath>
</defs>
</svg>
