<svg width="35" height="32" viewBox="0 0 35 32" fill="none" xmlns="http://www.w3.org/2000/svg">
<circle cx="24" cy="8" r="8" fill="#3843FF"/>
<g filter="url(#filter0_b_2028_38486)">
<g filter="url(#filter1_b_2028_38486)">
<path fill-rule="evenodd" clip-rule="evenodd" d="M9.4668 7.00542C11.2084 1.66486 18.7916 1.66486 20.5332 7.00542C21.0453 8.5756 22.5138 9.6387 24.1709 9.6387C29.8069 9.6387 32.1502 16.8244 27.5906 20.125C26.25 21.0954 25.6891 22.8156 26.2011 24.3857C27.9427 29.7263 21.8078 34.1673 17.2482 30.8666C15.9076 29.8962 14.0924 29.8962 12.7518 30.8666C8.19217 34.1673 2.05726 29.7263 3.79887 24.3857C4.31093 22.8156 3.74998 21.0954 2.4094 20.125C-2.15021 16.8244 0.193119 9.6387 5.8291 9.6387C7.48615 9.6387 8.95474 8.5756 9.4668 7.00542Z" fill="#3843FF" fill-opacity="0.35"/>
<path d="M9.70071 7.0817C11.3685 1.96748 18.6315 1.96748 20.2993 7.0817C20.8445 8.75359 22.4078 9.88473 24.1709 9.88473C29.5704 9.88473 31.811 16.7662 27.4463 19.9257C26.0195 20.9586 25.4219 22.79 25.9672 24.462C27.6339 29.5729 21.7618 33.8302 17.3925 30.6674C15.9658 29.6346 14.0342 29.6346 12.6075 30.6673C8.23819 33.8302 2.36607 29.5729 4.03279 24.462C4.57806 22.79 3.98055 20.9586 2.55367 19.9257C-1.81102 16.7662 0.429603 9.88473 5.8291 9.88473C7.59216 9.88473 9.15549 8.75359 9.70071 7.0817Z" stroke="url(#paint0_linear_2028_38486)" stroke-width="0.492071" stroke-linecap="round"/>
</g>
<g filter="url(#filter2_d_2028_38486)">
<g filter="url(#filter3_d_2028_38486)">
<path fill-rule="evenodd" clip-rule="evenodd" d="M18.6008 11.4666C18.4242 10.9472 17.8585 10.6688 17.3372 10.8447C16.816 11.0207 16.5365 11.5843 16.7131 12.1037C17.2859 13.7885 18.9105 14.893 20.703 14.893C21.2533 14.893 21.6995 14.4485 21.6995 13.9002C21.6995 13.3518 21.2533 12.9073 20.703 12.9073C19.7204 12.9073 18.8855 12.3041 18.6008 11.4666Z" fill="url(#paint1_linear_2028_38486)"/>
</g>
</g>
</g>
<defs>
<filter id="filter0_b_2028_38486" x="-24" y="-21" width="78" height="77" filterUnits="userSpaceOnUse" color-interpolation-filters="sRGB">
<feFlood flood-opacity="0" result="BackgroundImageFix"/>
<feGaussianBlur in="BackgroundImage" stdDeviation="12"/>
<feComposite in2="SourceAlpha" operator="in" result="effect1_backgroundBlur_2028_38486"/>
<feBlend mode="normal" in="SourceGraphic" in2="effect1_backgroundBlur_2028_38486" result="shape"/>
</filter>
<filter id="filter1_b_2028_38486" x="-8" y="-5" width="46" height="45" filterUnits="userSpaceOnUse" color-interpolation-filters="sRGB">
<feFlood flood-opacity="0" result="BackgroundImageFix"/>
<feGaussianBlur in="BackgroundImage" stdDeviation="4"/>
<feComposite in2="SourceAlpha" operator="in" result="effect1_backgroundBlur_2028_38486"/>
<feBlend mode="normal" in="SourceGraphic" in2="effect1_backgroundBlur_2028_38486" result="shape"/>
</filter>
<filter id="filter2_d_2028_38486" x="13.6602" y="7.79199" width="21.0396" height="20.1011" filterUnits="userSpaceOnUse" color-interpolation-filters="sRGB">
<feFlood flood-opacity="0" result="BackgroundImageFix"/>
<feColorMatrix in="SourceAlpha" type="matrix" values="0 0 0 0 0 0 0 0 0 0 0 0 0 0 0 0 0 0 127 0" result="hardAlpha"/>
<feOffset dx="5" dy="5"/>
<feGaussianBlur stdDeviation="4"/>
<feColorMatrix type="matrix" values="0 0 0 0 1 0 0 0 0 0.737255 0 0 0 0 0.0588235 0 0 0 0.5 0"/>
<feBlend mode="normal" in2="BackgroundImageFix" result="effect1_dropShadow_2028_38486"/>
<feBlend mode="normal" in="SourceGraphic" in2="effect1_dropShadow_2028_38486" result="shape"/>
</filter>
<filter id="filter3_d_2028_38486" x="14.6602" y="8.79199" width="11.0396" height="10.1011" filterUnits="userSpaceOnUse" color-interpolation-filters="sRGB">
<feFlood flood-opacity="0" result="BackgroundImageFix"/>
<feColorMatrix in="SourceAlpha" type="matrix" values="0 0 0 0 0 0 0 0 0 0 0 0 0 0 0 0 0 0 127 0" result="hardAlpha"/>
<feOffset dx="1" dy="1"/>
<feGaussianBlur stdDeviation="1.5"/>
<feColorMatrix type="matrix" values="0 0 0 0 0.219608 0 0 0 0 0.262745 0 0 0 0 1 0 0 0 0.5 0"/>
<feBlend mode="normal" in2="BackgroundImageFix" result="effect1_dropShadow_2028_38486"/>
<feBlend mode="normal" in="SourceGraphic" in2="effect1_dropShadow_2028_38486" result="shape"/>
</filter>
<linearGradient id="paint0_linear_2028_38486" x1="0" y1="3" x2="28.999" y2="32.9686" gradientUnits="userSpaceOnUse">
<stop stop-color="white" stop-opacity="0.25"/>
<stop offset="1" stop-color="white" stop-opacity="0"/>
</linearGradient>
<linearGradient id="paint1_linear_2028_38486" x1="19.2223" y1="15.7667" x2="24.7869" y2="9.06408" gradientUnits="userSpaceOnUse">
<stop stop-color="white"/>
<stop offset="1" stop-color="white" stop-opacity="0.2"/>
</linearGradient>
</defs>
</svg>
