<svg width="35" height="32" viewBox="0 0 35 32" fill="none" xmlns="http://www.w3.org/2000/svg">
<circle cx="24" cy="8" r="8" fill="#EE2266"/>
<g filter="url(#filter0_b_2028_38475)">
<g filter="url(#filter1_b_2028_38475)">
<path fill-rule="evenodd" clip-rule="evenodd" d="M9.4668 7.00542C11.2084 1.66486 18.7916 1.66486 20.5332 7.00542C21.0453 8.5756 22.5138 9.6387 24.1709 9.6387C29.8069 9.6387 32.1502 16.8244 27.5906 20.125C26.25 21.0954 25.6891 22.8156 26.2011 24.3857C27.9427 29.7263 21.8078 34.1673 17.2482 30.8666C15.9076 29.8962 14.0924 29.8962 12.7518 30.8666C8.19217 34.1673 2.05726 29.7263 3.79887 24.3857C4.31093 22.8156 3.74998 21.0954 2.4094 20.125C-2.15021 16.8244 0.193119 9.6387 5.8291 9.6387C7.48615 9.6387 8.95474 8.5756 9.4668 7.00542Z" fill="#EE2266" fill-opacity="0.35"/>
<path d="M9.94216 7.16044C11.5338 2.27985 18.4662 2.27985 20.0578 7.16044C20.6373 8.93731 22.2984 10.1387 24.1709 10.1387C29.3263 10.1387 31.4609 16.7061 27.2974 19.72C25.7814 20.8174 25.1462 22.7636 25.7258 24.5408C27.3152 29.4145 21.7143 33.4823 17.5414 30.4616C16.0259 29.3646 13.9741 29.3646 12.4586 30.4616C8.2857 33.4823 2.68484 29.4145 4.27424 24.5408C4.8538 22.7636 4.21855 20.8174 2.70259 19.72C-1.4609 16.7061 0.673709 10.1387 5.8291 10.1387C7.70158 10.1387 9.3627 8.93731 9.94216 7.16044Z" stroke="url(#paint0_linear_2028_38475)" stroke-linecap="round"/>
</g>
<g filter="url(#filter2_d_2028_38475)">
<g filter="url(#filter3_d_2028_38475)">
<path fill-rule="evenodd" clip-rule="evenodd" d="M18.6008 11.4666C18.4242 10.9472 17.8585 10.6688 17.3372 10.8447C16.816 11.0207 16.5365 11.5843 16.7131 12.1037C17.2859 13.7885 18.9105 14.893 20.703 14.893C21.2533 14.893 21.6995 14.4485 21.6995 13.9002C21.6995 13.3518 21.2533 12.9073 20.703 12.9073C19.7204 12.9073 18.8855 12.3041 18.6008 11.4666Z" fill="url(#paint1_linear_2028_38475)"/>
</g>
</g>
</g>
<defs>
<filter id="filter0_b_2028_38475" x="-24" y="-21" width="78" height="77" filterUnits="userSpaceOnUse" color-interpolation-filters="sRGB">
<feFlood flood-opacity="0" result="BackgroundImageFix"/>
<feGaussianBlur in="BackgroundImage" stdDeviation="12"/>
<feComposite in2="SourceAlpha" operator="in" result="effect1_backgroundBlur_2028_38475"/>
<feBlend mode="normal" in="SourceGraphic" in2="effect1_backgroundBlur_2028_38475" result="shape"/>
</filter>
<filter id="filter1_b_2028_38475" x="-6" y="-3" width="42" height="41" filterUnits="userSpaceOnUse" color-interpolation-filters="sRGB">
<feFlood flood-opacity="0" result="BackgroundImageFix"/>
<feGaussianBlur in="BackgroundImage" stdDeviation="3"/>
<feComposite in2="SourceAlpha" operator="in" result="effect1_backgroundBlur_2028_38475"/>
<feBlend mode="normal" in="SourceGraphic" in2="effect1_backgroundBlur_2028_38475" result="shape"/>
</filter>
<filter id="filter2_d_2028_38475" x="13.6602" y="7.79199" width="21.0396" height="20.1011" filterUnits="userSpaceOnUse" color-interpolation-filters="sRGB">
<feFlood flood-opacity="0" result="BackgroundImageFix"/>
<feColorMatrix in="SourceAlpha" type="matrix" values="0 0 0 0 0 0 0 0 0 0 0 0 0 0 0 0 0 0 127 0" result="hardAlpha"/>
<feOffset dx="5" dy="5"/>
<feGaussianBlur stdDeviation="4"/>
<feColorMatrix type="matrix" values="0 0 0 0 1 0 0 0 0 0.737255 0 0 0 0 0.0588235 0 0 0 0.5 0"/>
<feBlend mode="normal" in2="BackgroundImageFix" result="effect1_dropShadow_2028_38475"/>
<feBlend mode="normal" in="SourceGraphic" in2="effect1_dropShadow_2028_38475" result="shape"/>
</filter>
<filter id="filter3_d_2028_38475" x="14.6602" y="8.79199" width="11.0396" height="10.1011" filterUnits="userSpaceOnUse" color-interpolation-filters="sRGB">
<feFlood flood-opacity="0" result="BackgroundImageFix"/>
<feColorMatrix in="SourceAlpha" type="matrix" values="0 0 0 0 0 0 0 0 0 0 0 0 0 0 0 0 0 0 127 0" result="hardAlpha"/>
<feOffset dx="1" dy="1"/>
<feGaussianBlur stdDeviation="1.5"/>
<feColorMatrix type="matrix" values="0 0 0 0 0.933333 0 0 0 0 0.133333 0 0 0 0 0.4 0 0 0 0.5 0"/>
<feBlend mode="normal" in2="BackgroundImageFix" result="effect1_dropShadow_2028_38475"/>
<feBlend mode="normal" in="SourceGraphic" in2="effect1_dropShadow_2028_38475" result="shape"/>
</filter>
<linearGradient id="paint0_linear_2028_38475" x1="0" y1="3" x2="28.999" y2="32.9686" gradientUnits="userSpaceOnUse">
<stop stop-color="white" stop-opacity="0.25"/>
<stop offset="1" stop-color="white" stop-opacity="0"/>
</linearGradient>
<linearGradient id="paint1_linear_2028_38475" x1="19.2223" y1="15.7667" x2="24.7869" y2="9.06408" gradientUnits="userSpaceOnUse">
<stop stop-color="white"/>
<stop offset="1" stop-color="white" stop-opacity="0.2"/>
</linearGradient>
</defs>
</svg>
