<svg width="14" height="15" viewBox="0 0 14 15" fill="none" xmlns="http://www.w3.org/2000/svg">
<path d="M10.5583 6.84959C10.9253 10.3431 12.3684 11.3993 12.3684 11.3993H1C1 11.3993 2.89474 10.0129 2.89474 5.15971C2.89474 4.05674 3.2939 2.99861 4.00443 2.21867C4.71559 1.43872 5.68001 1 6.68422 1C6.89706 1 7.10864 1.0195 7.3158 1.0585" stroke="#FE5A91" stroke-width="2" stroke-linecap="round" stroke-linejoin="round"/>
<path d="M11.1052 4.89973C11.6077 4.89973 12.0896 4.6943 12.445 4.32863C12.8003 3.96296 12.9999 3.467 12.9999 2.94986C12.9999 2.43273 12.8003 1.93677 12.445 1.5711C12.0896 1.20543 11.6077 1 11.1052 1C10.6027 1 10.1207 1.20543 9.76541 1.5711C9.41007 1.93677 9.21045 2.43273 9.21045 2.94986C9.21045 3.467 9.41007 3.96296 9.76541 4.32863C10.1207 4.6943 10.6027 4.89973 11.1052 4.89973Z" stroke="#FE5A91" stroke-width="2" stroke-linecap="round" stroke-linejoin="round"/>
<path d="M7.77706 13.3494C7.66615 13.5465 7.50682 13.7102 7.31505 13.824C7.12327 13.9378 6.9058 13.9977 6.68443 13.9977C6.46306 13.9977 6.24559 13.9378 6.05381 13.824C5.86204 13.7102 5.70271 13.5465 5.5918 13.3494" stroke="#FE5A91" stroke-width="2" stroke-linecap="round" stroke-linejoin="round"/>
</svg>
