<svg width="84" height="24" viewBox="0 0 84 24" fill="none" xmlns="http://www.w3.org/2000/svg">
<path d="M8.9762 10.1941C8.98889 10.222 9.06753 10.3615 9.21215 10.6178C9.35676 10.8715 9.48869 11.115 9.60286 11.351C9.71703 11.5869 9.82866 11.8812 9.93268 12.2364C10.0367 12.5941 10.0874 12.924 10.0874 13.2259V16.0725C9.2223 16.5672 8.36983 16.8159 7.53006 16.8159C6.25137 16.8032 5.19595 16.1689 4.36378 14.9181C3.53162 13.6673 3.11554 12.0385 3.11554 10.0317C3.11554 8.02486 3.51386 6.39859 4.31051 5.15542C5.10715 3.91225 6.13213 3.28813 7.38291 3.28813C7.39559 3.28813 7.41082 3.28813 7.4235 3.28813C9.01679 3.30335 10.6202 4.49831 12.2262 6.87556H12.3911V3.53422C10.605 2.77817 8.92799 2.40015 7.36008 2.40015C5.29743 2.40015 3.55953 3.12829 2.14383 4.58458C0.71292 6.05608 0 7.8701 0 10.0292C0 12.244 0.687549 14.0707 2.06265 15.5143C3.43775 16.9579 5.11476 17.6785 7.09368 17.6785C8.89501 17.6785 10.8054 17.1964 12.8275 16.2349V13.2233C12.8275 12.8402 12.8655 12.4292 12.9417 11.9954C13.0178 11.5616 13.104 11.1607 13.2004 10.7903C13.2969 10.4199 13.3451 10.2194 13.3451 10.1915V10.1103H8.97366V10.1941H8.9762Z" fill="white"/>
<path d="M24.4158 16.238C23.9084 16.238 23.6522 15.8042 23.6522 14.939V10.3215C23.6522 9.30416 23.3274 8.49737 22.683 7.89861C22.0361 7.29986 21.0872 7.00049 19.8364 7.00049C18.5704 7.00049 17.0938 7.26181 15.4041 7.78445V10.423H15.5081C15.7695 10.0653 16.3936 9.54772 17.3856 8.86524C18.375 8.1853 19.1463 7.84534 19.6943 7.84534C20.1206 7.84534 20.458 8.05084 20.7041 8.46439C20.9527 8.87793 21.0745 9.45384 21.0745 10.1972V11.4759C20.6635 11.3389 20.2144 11.2501 19.7349 11.207C19.433 11.1664 19.1362 11.1461 18.8495 11.1461C17.8448 11.1461 16.901 11.4226 16.013 11.9706C15.1276 12.5212 14.6836 13.3457 14.6836 14.4443C14.6836 15.3094 14.9779 16.0553 15.569 16.682C16.1602 17.3087 16.972 17.6207 18.0021 17.6207C19.3493 17.6207 20.3946 17.0854 21.1354 16.0122C21.2445 16.5069 21.4728 16.8926 21.8153 17.1666C22.1578 17.4406 22.5917 17.5776 23.1143 17.5776C23.5964 17.5776 23.9998 17.4507 24.3296 17.197C24.6594 16.9433 24.8776 16.6033 24.9892 16.1771L24.9486 16.1162C24.7457 16.1949 24.5655 16.238 24.4158 16.238ZM21.0745 15.35C20.5671 15.9285 19.9962 16.2152 19.362 16.2152C18.7987 16.2152 18.3319 16.0147 17.959 15.6164C17.5733 15.2181 17.3805 14.7158 17.3805 14.1119C17.3805 13.3965 17.6342 12.8637 18.1442 12.5136C18.6516 12.1634 19.23 11.9884 19.877 11.9884C20.1383 11.9884 20.4199 12.0087 20.7219 12.0493C20.8056 12.062 20.9223 12.0696 21.072 12.0696V15.35H21.0745Z" fill="white"/>
<path d="M29.0356 2.07056L25.9023 2.46127V2.54499C26.2728 3.53445 26.458 4.52392 26.458 5.51338V14.3399C26.458 14.9589 26.2931 15.9687 25.9632 17.3717V17.4554H29.5304V17.3717C29.2006 15.9687 29.0356 14.9589 29.0356 14.3399V2.07056Z" fill="white"/>
<path d="M40.5213 16.238C40.0139 16.238 39.7577 15.8042 39.7577 14.939V10.3215C39.7577 9.30416 39.4329 8.49737 38.7885 7.89861C38.1415 7.29986 37.1927 7.00049 35.9419 7.00049C34.6759 7.00049 33.1993 7.26181 31.5096 7.78445V10.423H31.6136C31.8749 10.0653 32.4991 9.54772 33.4911 8.86524C34.4805 8.1853 35.2518 7.84534 35.7998 7.84534C36.226 7.84534 36.5635 8.05084 36.8096 8.46439C37.0582 8.87793 37.18 9.45384 37.18 10.1972V11.4759C36.769 11.3389 36.3199 11.2501 35.8404 11.207C35.5385 11.1664 35.2416 11.1461 34.9549 11.1461C33.9503 11.1461 33.0065 11.4226 32.1185 11.9706C31.233 12.5212 30.7891 13.3457 30.7891 14.4443C30.7891 15.3094 31.0834 16.0553 31.6745 16.682C32.2656 17.3087 33.0775 17.6207 34.1076 17.6207C35.4548 17.6207 36.5 17.0854 37.2409 16.0122C37.35 16.5069 37.5783 16.8926 37.9208 17.1666C38.2633 17.4406 38.6972 17.5776 39.2198 17.5776C39.7018 17.5776 40.1052 17.4507 40.4351 17.197C40.7649 16.9433 40.9831 16.6033 41.0947 16.1771L41.0541 16.1162C40.8511 16.1949 40.6735 16.238 40.5213 16.238ZM37.1825 15.35C36.6751 15.9285 36.1043 16.2152 35.47 16.2152C34.9068 16.2152 34.4399 16.0147 34.067 15.6164C33.6813 15.2181 33.4885 14.7158 33.4885 14.1119C33.4885 13.3965 33.7422 12.8637 34.2522 12.5136C34.7596 12.1634 35.3381 11.9884 35.985 11.9884C36.2463 11.9884 36.5279 12.0087 36.8299 12.0493C36.9136 12.062 37.0303 12.0696 37.18 12.0696V15.35H37.1825Z" fill="white"/>
<path d="M50.2731 14.7939L48.2739 11.8661L50.2959 9.18438C50.8871 8.42833 51.5467 7.76869 52.2749 7.20546V7.12427H49.6769V7.18516C49.7327 7.24097 49.7606 7.35768 49.7606 7.53528C49.7606 7.65959 49.7403 7.87525 49.6997 8.18477C49.6591 8.49429 49.4993 8.84188 49.2253 9.22498L47.7817 11.1633L46.5436 9.34929C46.2671 8.95097 46.0996 8.57294 46.0387 8.21521C45.9778 7.85749 45.9448 7.61139 45.9448 7.47439C45.9448 7.33738 45.9651 7.24097 46.0057 7.18516V7.12427H41.5938V7.22829C42.3777 7.95643 43.0906 8.80889 43.7376 9.78567L45.8205 12.8175L43.801 15.4992C43.2378 16.2146 42.5781 16.8667 41.8221 17.4578V17.5618H44.4201V17.5009C44.3642 17.4451 44.3389 17.3233 44.3389 17.1305C44.3389 17.0062 44.3592 16.7906 44.3998 16.481C44.4404 16.1715 44.6002 15.8315 44.8742 15.4586L46.2975 13.5203L47.495 15.2328C47.769 15.6311 47.939 16.0091 47.9999 16.3669C48.0608 16.7246 48.0912 16.9732 48.0912 17.1102C48.0912 17.2472 48.0709 17.3436 48.0303 17.3995V17.4603H52.5032V17.3766C51.6203 16.547 50.8769 15.6869 50.2731 14.7939Z" fill="white"/>
<path d="M63.8317 7.12354H61.5027V7.18443C61.5712 7.33665 61.6295 7.52186 61.6777 7.74005C61.7259 7.96077 61.7488 8.21448 61.7488 8.50371C61.7488 8.5849 61.7462 8.74981 61.7386 8.99844C61.731 9.24707 61.66 9.54138 61.523 9.88388L59.6252 14.5648L57.5423 9.86359C57.3901 9.52108 57.3089 9.21663 57.2962 8.95531C57.281 8.69399 57.2759 8.50879 57.2759 8.39969C57.2759 8.15359 57.2962 7.92525 57.3368 7.71975C57.3774 7.51425 57.4332 7.33665 57.5017 7.18443V7.12354H53.1709V7.20472C53.3485 7.39754 53.6047 7.76034 53.9346 8.29821C54.2644 8.83353 54.5536 9.38408 54.7997 9.94731L58.3263 17.7818L57.9558 18.7104C57.7782 19.1493 57.5601 19.4563 57.3063 19.6288C57.0526 19.8013 56.8015 19.8851 56.5554 19.8851C56.4716 19.8851 56.3296 19.8648 56.1215 19.8242C55.916 19.7836 55.6395 19.6593 55.297 19.4538C54.9545 19.2483 54.617 18.9793 54.2872 18.6495L54.2466 18.6698L53.7316 21.1435C54.4318 21.4327 55.0788 21.5773 55.6699 21.5773C56.0277 21.5773 56.497 21.4733 57.0831 21.2678C57.6666 21.0623 58.1918 20.3671 58.6612 19.1848L62.5378 9.61749C62.9361 8.64071 63.37 7.83646 63.8368 7.20472V7.12354H63.8317Z" fill="white"/>
<path d="M81.5277 5.67292C81.411 5.67292 81.2968 5.68814 81.1852 5.70844L79.6173 3.06733C79.9776 2.74766 80.211 2.27576 80.211 1.74044C80.211 0.778885 79.4727 0 78.5619 0C77.7855 0 77.1386 0.568307 76.9635 1.33451H63.6159C63.4434 0.601289 62.8193 0.0583538 62.0734 0.0583538C61.193 0.0583538 60.4775 0.811867 60.4775 1.74298C60.4775 2.67409 61.1905 3.4276 62.0734 3.4276C62.8193 3.4276 63.4434 2.88213 63.6159 2.15145H76.9635C77.0548 2.54977 77.2756 2.89481 77.5775 3.1333L76.3749 6.19302C76.3292 6.18795 76.2836 6.1778 76.2379 6.1778C75.5986 6.1778 75.0658 6.63193 74.8958 7.25098H70.839C70.6893 6.89325 70.3544 6.64462 69.9612 6.64462C69.4309 6.64462 68.9996 7.09876 68.9996 7.65945C68.9996 8.22015 69.4309 8.67429 69.9612 8.67429C70.3544 8.67429 70.6918 8.42311 70.839 8.06792H74.8958C75.0632 8.68697 75.5986 9.14111 76.2379 9.14111C76.8772 9.14111 77.41 8.68697 77.58 8.06792H79.6934C79.7695 8.4561 79.9547 8.80114 80.211 9.07007L70.8238 20.7609C70.6436 20.6772 70.4483 20.6265 70.2402 20.6265C69.4487 20.6265 68.8068 21.3039 68.8068 22.1411C68.8068 22.9784 69.4487 23.6558 70.2402 23.6558C71.0318 23.6558 71.6737 22.9784 71.6737 22.1411C71.6737 21.8316 71.5849 21.5449 71.4352 21.3064L80.8985 9.51913C81.0964 9.59525 81.307 9.64345 81.5303 9.64345C82.5654 9.64345 83.4052 8.75548 83.4052 7.66199C83.4026 6.5609 82.5654 5.67292 81.5277 5.67292ZM79.6934 7.24591H77.58C77.5014 6.95415 77.3415 6.70297 77.1233 6.51523L78.3259 3.45551C78.4046 3.46819 78.4807 3.48088 78.5619 3.48088C78.676 3.48088 78.7851 3.46819 78.8917 3.44536L80.4368 6.04587C80.0638 6.33256 79.7924 6.75372 79.6934 7.24591Z" fill="white"/>
<path d="M81.5277 5.67292C81.411 5.67292 81.2968 5.68814 81.1852 5.70844L79.6173 3.06733C79.9776 2.74766 80.211 2.27576 80.211 1.74044C80.211 0.778885 79.4727 0 78.5619 0C77.7855 0 77.1386 0.568307 76.9635 1.33451H63.6159C63.4434 0.601289 62.8193 0.0583538 62.0734 0.0583538C61.193 0.0583538 60.4775 0.811867 60.4775 1.74298C60.4775 2.67409 61.1905 3.4276 62.0734 3.4276C62.8193 3.4276 63.4434 2.88213 63.6159 2.15145H76.9635C77.0548 2.54977 77.2756 2.89481 77.5775 3.1333L76.3749 6.19302C76.3292 6.18795 76.2836 6.1778 76.2379 6.1778C75.5986 6.1778 75.0658 6.63193 74.8958 7.25098H70.839C70.6893 6.89325 70.3544 6.64462 69.9612 6.64462C69.4309 6.64462 68.9996 7.09876 68.9996 7.65945C68.9996 8.22015 69.4309 8.67429 69.9612 8.67429C70.3544 8.67429 70.6918 8.42311 70.839 8.06792H74.8958C75.0632 8.68697 75.5986 9.14111 76.2379 9.14111C76.8772 9.14111 77.41 8.68697 77.58 8.06792H79.6934C79.7695 8.4561 79.9547 8.80114 80.211 9.07007L70.8238 20.7609C70.6436 20.6772 70.4483 20.6265 70.2402 20.6265C69.4487 20.6265 68.8068 21.3039 68.8068 22.1411C68.8068 22.9784 69.4487 23.6558 70.2402 23.6558C71.0318 23.6558 71.6737 22.9784 71.6737 22.1411C71.6737 21.8316 71.5849 21.5449 71.4352 21.3064L80.8985 9.51913C81.0964 9.59525 81.307 9.64345 81.5303 9.64345C82.5654 9.64345 83.4052 8.75548 83.4052 7.66199C83.4026 6.5609 82.5654 5.67292 81.5277 5.67292ZM79.6934 7.24591H77.58C77.5014 6.95415 77.3415 6.70297 77.1233 6.51523L78.3259 3.45551C78.4046 3.46819 78.4807 3.48088 78.5619 3.48088C78.676 3.48088 78.7851 3.46819 78.8917 3.44536L80.4368 6.04587C80.0638 6.33256 79.7924 6.75372 79.6934 7.24591Z" fill="url(#paint0_linear_146_14559)"/>
<path d="M81.5277 5.67292C81.411 5.67292 81.2968 5.68814 81.1852 5.70844L79.6173 3.06733C79.9776 2.74766 80.211 2.27576 80.211 1.74044C80.211 0.778885 79.4727 0 78.5619 0C77.7855 0 77.1386 0.568307 76.9635 1.33451H63.6159C63.4434 0.601289 62.8193 0.0583538 62.0734 0.0583538C61.193 0.0583538 60.4775 0.811867 60.4775 1.74298C60.4775 2.67409 61.1905 3.4276 62.0734 3.4276C62.8193 3.4276 63.4434 2.88213 63.6159 2.15145H76.9635C77.0548 2.54977 77.2756 2.89481 77.5775 3.1333L76.3749 6.19302C76.3292 6.18795 76.2836 6.1778 76.2379 6.1778C75.5986 6.1778 75.0658 6.63193 74.8958 7.25098H70.839C70.6893 6.89325 70.3544 6.64462 69.9612 6.64462C69.4309 6.64462 68.9996 7.09876 68.9996 7.65945C68.9996 8.22015 69.4309 8.67429 69.9612 8.67429C70.3544 8.67429 70.6918 8.42311 70.839 8.06792H74.8958C75.0632 8.68697 75.5986 9.14111 76.2379 9.14111C76.8772 9.14111 77.41 8.68697 77.58 8.06792H79.6934C79.7695 8.4561 79.9547 8.80114 80.211 9.07007L70.8238 20.7609C70.6436 20.6772 70.4483 20.6265 70.2402 20.6265C69.4487 20.6265 68.8068 21.3039 68.8068 22.1411C68.8068 22.9784 69.4487 23.6558 70.2402 23.6558C71.0318 23.6558 71.6737 22.9784 71.6737 22.1411C71.6737 21.8316 71.5849 21.5449 71.4352 21.3064L80.8985 9.51913C81.0964 9.59525 81.307 9.64345 81.5303 9.64345C82.5654 9.64345 83.4052 8.75548 83.4052 7.66199C83.4026 6.5609 82.5654 5.67292 81.5277 5.67292ZM79.6934 7.24591H77.58C77.5014 6.95415 77.3415 6.70297 77.1233 6.51523L78.3259 3.45551C78.4046 3.46819 78.4807 3.48088 78.5619 3.48088C78.676 3.48088 78.7851 3.46819 78.8917 3.44536L80.4368 6.04587C80.0638 6.33256 79.7924 6.75372 79.6934 7.24591Z" fill="url(#paint1_linear_146_14559)"/>
<path d="M65.2041 14.3802C64.75 14.3802 64.3669 14.54 64.0498 14.8546C63.7326 15.1844 63.5753 15.5701 63.5753 16.009C63.5753 16.4631 63.7326 16.8488 64.0498 17.1634C64.3669 17.4805 64.75 17.6378 65.2041 17.6378C65.643 17.6378 66.0261 17.4805 66.3484 17.1634C66.6706 16.8462 66.8329 16.4631 66.8329 16.009C66.8329 15.5701 66.6706 15.187 66.3484 14.8648C66.0236 14.5426 65.643 14.3802 65.2041 14.3802Z" fill="white"/>
<path d="M65.2041 14.3802C64.75 14.3802 64.3669 14.54 64.0498 14.8546C63.7326 15.1844 63.5753 15.5701 63.5753 16.009C63.5753 16.4631 63.7326 16.8488 64.0498 17.1634C64.3669 17.4805 64.75 17.6378 65.2041 17.6378C65.643 17.6378 66.0261 17.4805 66.3484 17.1634C66.6706 16.8462 66.8329 16.4631 66.8329 16.009C66.8329 15.5701 66.6706 15.187 66.3484 14.8648C66.0236 14.5426 65.643 14.3802 65.2041 14.3802Z" fill="url(#paint2_linear_146_14559)"/>
<path d="M65.2041 14.3802C64.75 14.3802 64.3669 14.54 64.0498 14.8546C63.7326 15.1844 63.5753 15.5701 63.5753 16.009C63.5753 16.4631 63.7326 16.8488 64.0498 17.1634C64.3669 17.4805 64.75 17.6378 65.2041 17.6378C65.643 17.6378 66.0261 17.4805 66.3484 17.1634C66.6706 16.8462 66.8329 16.4631 66.8329 16.009C66.8329 15.5701 66.6706 15.187 66.3484 14.8648C66.0236 14.5426 65.643 14.3802 65.2041 14.3802Z" fill="url(#paint3_linear_146_14559)"/>
<defs>
<linearGradient id="paint0_linear_146_14559" x1="83" y1="-3.86121e-07" x2="60" y2="15" gradientUnits="userSpaceOnUse">
<stop stop-color="#8A00FF"/>
<stop offset="1" stop-color="#D150FF"/>
</linearGradient>
<linearGradient id="paint1_linear_146_14559" x1="60.4775" y1="-0.109517" x2="75.1537" y2="27.8738" gradientUnits="userSpaceOnUse">
<stop stop-color="#92ECF2"/>
<stop offset="1" stop-color="#63A4FF"/>
</linearGradient>
<linearGradient id="paint2_linear_146_14559" x1="83" y1="-3.86121e-07" x2="60" y2="15" gradientUnits="userSpaceOnUse">
<stop stop-color="#8A00FF"/>
<stop offset="1" stop-color="#D150FF"/>
</linearGradient>
<linearGradient id="paint3_linear_146_14559" x1="60.4775" y1="-0.109517" x2="75.1537" y2="27.8738" gradientUnits="userSpaceOnUse">
<stop stop-color="#92ECF2"/>
<stop offset="1" stop-color="#63A4FF"/>
</linearGradient>
</defs>
</svg>
