<svg width="81" height="80" viewBox="0 0 81 80" fill="none" xmlns="http://www.w3.org/2000/svg">
<path d="M34.6667 21.8333C34.6667 11.478 43.0614 3.08331 53.4167 3.08331C63.7721 3.08331 72.1667 11.478 72.1667 21.8333C72.1667 32.1887 63.7721 40.5833 53.4167 40.5833C43.0614 40.5833 34.6667 32.1887 34.6667 21.8333Z" fill="url(#paint0_linear_1483_857)"/>
<path d="M34.6667 21.8333C34.6667 11.478 43.0614 3.08331 53.4167 3.08331C63.7721 3.08331 72.1667 11.478 72.1667 21.8333C72.1667 32.1887 63.7721 40.5833 53.4167 40.5833C43.0614 40.5833 34.6667 32.1887 34.6667 21.8333Z" fill="url(#paint1_linear_1483_857)"/>
<path d="M71.1883 37.3953C70.5781 36.7851 69.5888 36.7851 68.9786 37.3953C68.3684 38.0055 68.3684 38.9948 68.9785 39.605L77.3117 47.9382C77.9219 48.5484 78.9112 48.5484 79.5214 47.9383C80.1316 47.3281 80.1316 46.3387 79.5214 45.7285L71.1883 37.3953Z" fill="url(#paint2_linear_1483_857)"/>
<path d="M71.1883 37.3953C70.5781 36.7851 69.5888 36.7851 68.9786 37.3953C68.3684 38.0055 68.3684 38.9948 68.9785 39.605L77.3117 47.9382C77.9219 48.5484 78.9112 48.5484 79.5214 47.9383C80.1316 47.3281 80.1316 46.3387 79.5214 45.7285L71.1883 37.3953Z" fill="url(#paint3_linear_1483_857)"/>
<g filter="url(#filter0_b_1483_857)">
<path fill-rule="evenodd" clip-rule="evenodd" d="M4.5 34C4.5 17.4315 17.9315 4 34.5 4C51.0685 4 64.5 17.4315 64.5 34C64.5 50.5685 51.0685 64 34.5 64C17.9315 64 4.5 50.5685 4.5 34Z" fill="#F9E788" fill-opacity="0.35"/>
<path fill-rule="evenodd" clip-rule="evenodd" d="M4.5 34C4.5 17.4315 17.9315 4 34.5 4C51.0685 4 64.5 17.4315 64.5 34C64.5 50.5685 51.0685 64 34.5 64C17.9315 64 4.5 50.5685 4.5 34Z" fill="#FFCB5B" fill-opacity="0.2"/>
<path d="M59.3989 58.8989C60.3752 57.9226 61.9581 57.9226 62.9345 58.8989L76.2674 72.2321C77.2437 73.2084 77.2437 74.7913 76.2674 75.7676C75.2911 76.7439 73.7082 76.7439 72.7319 75.7676L59.3989 62.4344C58.4226 61.4581 58.4226 59.8752 59.3989 58.8989Z" fill="#F9E788" fill-opacity="0.35"/>
<path d="M59.3989 58.8989C60.3752 57.9226 61.9581 57.9226 62.9345 58.8989L76.2674 72.2321C77.2437 73.2084 77.2437 74.7913 76.2674 75.7676C75.2911 76.7439 73.7082 76.7439 72.7319 75.7676L59.3989 62.4344C58.4226 61.4581 58.4226 59.8752 59.3989 58.8989Z" fill="#FFCB5B" fill-opacity="0.2"/>
<path fill-rule="evenodd" clip-rule="evenodd" d="M4.5 34C4.5 17.4315 17.9315 4 34.5 4C51.0685 4 64.5 17.4315 64.5 34C64.5 50.5685 51.0685 64 34.5 64C17.9315 64 4.5 50.5685 4.5 34Z" stroke="url(#paint4_linear_1483_857)" stroke-linecap="round"/>
<path d="M59.3989 58.8989C60.3752 57.9226 61.9581 57.9226 62.9345 58.8989L76.2674 72.2321C77.2437 73.2084 77.2437 74.7913 76.2674 75.7676C75.2911 76.7439 73.7082 76.7439 72.7319 75.7676L59.3989 62.4344C58.4226 61.4581 58.4226 59.8752 59.3989 58.8989Z" stroke="url(#paint5_linear_1483_857)" stroke-linecap="round"/>
</g>
<g filter="url(#filter1_d_1483_857)">
<path fill-rule="evenodd" clip-rule="evenodd" d="M31.0287 13.814C31.2446 15.1777 30.3142 16.4583 28.9505 16.6743C22.8887 17.6344 18.1345 22.3886 17.1744 28.4504C16.9584 29.8141 15.6778 30.7445 14.3141 30.5285C12.9504 30.3125 12.02 29.0319 12.236 27.6682C13.5349 19.4669 19.9671 13.0348 28.1683 11.7359C29.5321 11.5199 30.8127 12.4503 31.0287 13.814Z" fill="url(#paint6_linear_1483_857)"/>
</g>
<defs>
<filter id="filter0_b_1483_857" x="-12" y="-12.5" width="105.5" height="105.5" filterUnits="userSpaceOnUse" color-interpolation-filters="sRGB">
<feFlood flood-opacity="0" result="BackgroundImageFix"/>
<feGaussianBlur in="BackgroundImage" stdDeviation="8"/>
<feComposite in2="SourceAlpha" operator="in" result="effect1_backgroundBlur_1483_857"/>
<feBlend mode="normal" in="SourceGraphic" in2="effect1_backgroundBlur_1483_857" result="shape"/>
</filter>
<filter id="filter1_d_1483_857" x="9.20483" y="8.70471" width="34.855" height="34.855" filterUnits="userSpaceOnUse" color-interpolation-filters="sRGB">
<feFlood flood-opacity="0" result="BackgroundImageFix"/>
<feColorMatrix in="SourceAlpha" type="matrix" values="0 0 0 0 0 0 0 0 0 0 0 0 0 0 0 0 0 0 127 0" result="hardAlpha"/>
<feOffset dx="5" dy="5"/>
<feGaussianBlur stdDeviation="4"/>
<feColorMatrix type="matrix" values="0 0 0 0 0.495833 0 0 0 0 0.357 0 0 0 0 0 0 0 0 0.5 0"/>
<feBlend mode="normal" in2="BackgroundImageFix" result="effect1_dropShadow_1483_857"/>
<feBlend mode="normal" in="SourceGraphic" in2="effect1_dropShadow_1483_857" result="shape"/>
</filter>
<linearGradient id="paint0_linear_1483_857" x1="34.6667" y1="48.3959" x2="80.9448" y2="4.09217" gradientUnits="userSpaceOnUse">
<stop stop-color="#207894"/>
<stop offset="1" stop-color="#2ECDFF"/>
</linearGradient>
<linearGradient id="paint1_linear_1483_857" x1="34.6667" y1="48.3959" x2="80.9448" y2="4.09217" gradientUnits="userSpaceOnUse">
<stop stop-color="#C97B06"/>
<stop offset="1" stop-color="#FFD12E"/>
</linearGradient>
<linearGradient id="paint2_linear_1483_857" x1="34.6667" y1="48.3959" x2="80.9448" y2="4.09217" gradientUnits="userSpaceOnUse">
<stop stop-color="#207894"/>
<stop offset="1" stop-color="#2ECDFF"/>
</linearGradient>
<linearGradient id="paint3_linear_1483_857" x1="34.6667" y1="48.3959" x2="80.9448" y2="4.09217" gradientUnits="userSpaceOnUse">
<stop stop-color="#C97B06"/>
<stop offset="1" stop-color="#FFD12E"/>
</linearGradient>
<linearGradient id="paint4_linear_1483_857" x1="4.5" y1="4" x2="77.0366" y2="76.4629" gradientUnits="userSpaceOnUse">
<stop stop-color="white" stop-opacity="0.25"/>
<stop offset="1" stop-color="white" stop-opacity="0"/>
</linearGradient>
<linearGradient id="paint5_linear_1483_857" x1="4.5" y1="4" x2="77.0366" y2="76.4629" gradientUnits="userSpaceOnUse">
<stop stop-color="white" stop-opacity="0.25"/>
<stop offset="1" stop-color="white" stop-opacity="0"/>
</linearGradient>
<linearGradient id="paint6_linear_1483_857" x1="21.7911" y1="34.5766" x2="47.8139" y2="9.06777" gradientUnits="userSpaceOnUse">
<stop stop-color="white"/>
<stop offset="1" stop-color="white" stop-opacity="0.2"/>
</linearGradient>
</defs>
</svg>
