<svg width="71" height="24" viewBox="0 0 71 24" fill="none" xmlns="http://www.w3.org/2000/svg">
<path fill-rule="evenodd" clip-rule="evenodd" d="M26.8859 1.70913L25 0H33.3083V8.11234H34.5825V0H46L44.1905 1.70913V3.34604L42.1262 4.88666V1.70913H39.7561V8.11234H42.1262V6.59579H44.1905V10.0381H39.7561V17.0913L42.1262 14.8526V13.2638H40.9539V11.2899H44.1905V15.7192L35.6274 24L34.5825 23.013V10.0381H33.3083V21.7854L26.8859 15.7192V12.0602L28.8228 13.7452V14.8526L31.193 17.0913V10.0381H28.8228V11.9398L26.8859 10.327V1.70913ZM31.2439 1.70913H28.8993V8.08826H31.2439V1.70913ZM37.6917 1.70913H36.5449V8.08826H37.6917V1.70913ZM37.6917 10.0863H36.5449V20.2207L37.6917 19.1374V10.0863Z" fill="url(#paint0_linear_1388_3155)"/>
<path fill-rule="evenodd" clip-rule="evenodd" d="M26.8859 1.70913L25 0H33.3083V8.11234H34.5825V0H46L44.1905 1.70913V3.34604L42.1262 4.88666V1.70913H39.7561V8.11234H42.1262V6.59579H44.1905V10.0381H39.7561V17.0913L42.1262 14.8526V13.2638H40.9539V11.2899H44.1905V15.7192L35.6274 24L34.5825 23.013V10.0381H33.3083V21.7854L26.8859 15.7192V12.0602L28.8228 13.7452V14.8526L31.193 17.0913V10.0381H28.8228V11.9398L26.8859 10.327V1.70913ZM31.2439 1.70913H28.8993V8.08826H31.2439V1.70913ZM37.6917 1.70913H36.5449V8.08826H37.6917V1.70913ZM37.6917 10.0863H36.5449V20.2207L37.6917 19.1374V10.0863Z" fill="url(#paint1_linear_1388_3155)" style="mix-blend-mode:color"/>
<path d="M1.274 15V5.2H3.374V13.11H7.812V15H1.274ZM12.5642 15V5.2H19.1722V7.048H14.6222V13.152H19.2702V15H12.5642ZM13.5442 10.898V9.106H18.5002V10.898H13.5442ZM28.745 15.14C27.9796 15.14 27.2843 15.014 26.659 14.762C26.0336 14.51 25.4923 14.1553 25.035 13.698C24.5776 13.2407 24.223 12.704 23.971 12.088C23.7283 11.472 23.607 10.8047 23.607 10.086C23.607 9.36733 23.733 8.7 23.985 8.084C24.2463 7.468 24.6103 6.936 25.077 6.488C25.553 6.03067 26.1083 5.676 26.743 5.424C27.3776 5.172 28.073 5.046 28.829 5.046C29.3516 5.046 29.851 5.116 30.327 5.256C30.803 5.396 31.237 5.58733 31.629 5.83C32.021 6.07267 32.343 6.35267 32.595 6.67L31.293 8.042C30.929 7.69667 30.5416 7.43067 30.131 7.244C29.7203 7.048 29.277 6.95 28.801 6.95C28.3623 6.95 27.9563 7.02933 27.583 7.188C27.219 7.33733 26.897 7.55667 26.617 7.846C26.3463 8.126 26.1316 8.45733 25.973 8.84C25.8236 9.22267 25.749 9.638 25.749 10.086C25.749 10.5247 25.8283 10.9353 25.987 11.318C26.155 11.7007 26.379 12.0367 26.659 12.326C26.9483 12.606 27.2843 12.83 27.667 12.998C28.0496 13.1567 28.4603 13.236 28.899 13.236C29.207 13.236 29.4963 13.1893 29.767 13.096C30.047 12.9933 30.2896 12.858 30.495 12.69C30.7096 12.522 30.8776 12.326 30.999 12.102C31.1203 11.878 31.181 11.6353 31.181 11.374V11.038L31.447 11.43H28.675V9.666H33.183C33.2016 9.76867 33.2156 9.89467 33.225 10.044C33.2343 10.1933 33.239 10.338 33.239 10.478C33.2483 10.618 33.253 10.7347 33.253 10.828C33.253 11.4627 33.141 12.046 32.917 12.578C32.693 13.1007 32.3756 13.5533 31.965 13.936C31.5543 14.3187 31.0736 14.6173 30.523 14.832C29.9723 15.0373 29.3796 15.14 28.745 15.14ZM36.6214 15L40.4714 5.2H42.3474L46.1694 15H44.0274L42.0394 9.722C41.9834 9.56333 41.9134 9.36733 41.8294 9.134C41.7547 8.90067 41.6754 8.65333 41.5914 8.392C41.5074 8.13067 41.428 7.88333 41.3534 7.65C41.288 7.40733 41.232 7.21133 41.1854 7.062L41.5634 7.048C41.5074 7.25333 41.442 7.47267 41.3674 7.706C41.302 7.93 41.2274 8.16333 41.1434 8.406C41.0687 8.64867 40.9894 8.882 40.9054 9.106C40.8307 9.33 40.756 9.54467 40.6814 9.75L38.7074 15H36.6214ZM38.4134 12.942L39.1134 11.234H43.5794L44.2934 12.942H38.4134ZM54.3693 15.14C53.6507 15.14 52.988 15.0187 52.3813 14.776C51.784 14.524 51.2613 14.174 50.8133 13.726C50.3747 13.2687 50.034 12.732 49.7913 12.116C49.558 11.5 49.4413 10.8233 49.4413 10.086C49.4413 9.36733 49.5673 8.70467 49.8193 8.098C50.0713 7.482 50.426 6.94533 50.8833 6.488C51.3407 6.03067 51.8727 5.676 52.4793 5.424C53.0953 5.172 53.7627 5.046 54.4813 5.046C54.948 5.046 55.4053 5.11133 55.8533 5.242C56.3107 5.36333 56.726 5.55 57.0993 5.802C57.482 6.04467 57.8087 6.32933 58.0793 6.656L56.7633 8.126C56.4367 7.77133 56.082 7.50067 55.6993 7.314C55.3167 7.12733 54.906 7.034 54.4673 7.034C54.066 7.034 53.688 7.10867 53.3333 7.258C52.988 7.398 52.6847 7.60333 52.4233 7.874C52.162 8.14467 51.9567 8.46667 51.8073 8.84C51.658 9.21333 51.5833 9.62867 51.5833 10.086C51.5833 10.5527 51.6533 10.9773 51.7933 11.36C51.9427 11.7333 52.1527 12.0553 52.4233 12.326C52.694 12.5873 53.016 12.7927 53.3893 12.942C53.772 13.082 54.192 13.152 54.6493 13.152C54.948 13.152 55.2327 13.11 55.5033 13.026C55.7833 12.942 56.0447 12.8253 56.2873 12.676C56.53 12.5267 56.7447 12.354 56.9313 12.158L57.9533 13.796C57.7387 14.048 57.44 14.2767 57.0573 14.482C56.6747 14.6873 56.25 14.8507 55.7833 14.972C55.3167 15.084 54.8453 15.14 54.3693 15.14ZM65.1 15V10.114L65.198 10.8L61.236 5.2H63.644L66.668 9.526L65.73 9.484L68.446 5.2H70.784L66.99 10.954L67.2 9.988V15H65.1Z" fill="white"/>
<defs>
<linearGradient id="paint0_linear_1388_3155" x1="34" y1="-2" x2="36" y2="27" gradientUnits="userSpaceOnUse">
<stop stop-color="#F4AD22"/>
<stop offset="1" stop-color="#F4AD22" stop-opacity="0"/>
</linearGradient>
<linearGradient id="paint1_linear_1388_3155" x1="27.625" y1="20.5" x2="44.8475" y2="-4.30036" gradientUnits="userSpaceOnUse">
<stop stop-color="#A6700B"/>
<stop offset="0.489583" stop-color="#F4C979" stop-opacity="0.44"/>
<stop offset="0.9375" stop-color="#D79314"/>
</linearGradient>
</defs>
</svg>
