<svg width="84" height="24" viewBox="0 0 84 24" fill="none" xmlns="http://www.w3.org/2000/svg">
<path fill-rule="evenodd" clip-rule="evenodd" d="M3.34709 5.28185L2 4H7.93447V10.0843H8.84466V4H17L15.7075 5.28185V6.50953L14.233 7.665V5.28185H12.54V10.0843H14.233V8.94684H15.7075V11.5286H12.54V16.8185L14.233 15.1394V13.9478H13.3956V12.4674H15.7075V15.7894L9.59102 22L8.84466 21.2598V11.5286H7.93447V20.339L3.34709 15.7894V13.0451L4.73058 14.3089V15.1394L6.42354 16.8185V11.5286H4.73058V12.9549L3.34709 11.7452V5.28185ZM6.45995 5.28185H4.78519V10.0662H6.45995V5.28185ZM11.0655 5.28185H10.2464V10.0662H11.0655V5.28185ZM11.0655 11.5647H10.2464V19.1655L11.0655 18.3531V11.5647Z" fill="url(#paint0_linear_1606_6573)"/>
<path fill-rule="evenodd" clip-rule="evenodd" d="M3.34709 5.28185L2 4H7.93447V10.0843H8.84466V4H17L15.7075 5.28185V6.50953L14.233 7.665V5.28185H12.54V10.0843H14.233V8.94684H15.7075V11.5286H12.54V16.8185L14.233 15.1394V13.9478H13.3956V12.4674H15.7075V15.7894L9.59102 22L8.84466 21.2598V11.5286H7.93447V20.339L3.34709 15.7894V13.0451L4.73058 14.3089V15.1394L6.42354 16.8185V11.5286H4.73058V12.9549L3.34709 11.7452V5.28185ZM6.45995 5.28185H4.78519V10.0662H6.45995V5.28185ZM11.0655 5.28185H10.2464V10.0662H11.0655V5.28185ZM11.0655 11.5647H10.2464V19.1655L11.0655 18.3531V11.5647Z" fill="url(#paint1_linear_1606_6573)" style="mix-blend-mode:overlay"/>
<path d="M22.128 17V8.6H23.676V15.56H27.552V17H22.128ZM31.7585 17V8.6H37.2425V10.016H33.2945V15.584H37.2905V17H31.7585ZM32.4785 13.4V12.008H36.6305V13.4H32.4785ZM45.4507 17.12C44.8267 17.12 44.2467 17.012 43.7107 16.796C43.1827 16.572 42.7187 16.264 42.3187 15.872C41.9187 15.48 41.6107 15.024 41.3947 14.504C41.1787 13.976 41.0707 13.404 41.0707 12.788C41.0707 12.18 41.1827 11.616 41.4067 11.096C41.6307 10.576 41.9387 10.12 42.3307 9.728C42.7307 9.336 43.1987 9.032 43.7347 8.816C44.2787 8.6 44.8627 8.492 45.4867 8.492C45.9187 8.492 46.3387 8.552 46.7467 8.672C47.1547 8.792 47.5227 8.96 47.8507 9.176C48.1867 9.392 48.4627 9.636 48.6787 9.908L47.6947 10.928C47.3587 10.608 47.0067 10.364 46.6387 10.196C46.2707 10.028 45.8827 9.944 45.4747 9.944C45.0747 9.944 44.7027 10.016 44.3587 10.16C44.0227 10.304 43.7227 10.504 43.4587 10.76C43.2027 11.016 43.0027 11.316 42.8587 11.66C42.7227 12.004 42.6547 12.38 42.6547 12.788C42.6547 13.188 42.7267 13.564 42.8707 13.916C43.0227 14.26 43.2307 14.564 43.4947 14.828C43.7667 15.092 44.0747 15.3 44.4187 15.452C44.7707 15.596 45.1427 15.668 45.5347 15.668C45.8307 15.668 46.1067 15.628 46.3627 15.548C46.6187 15.46 46.8467 15.34 47.0467 15.188C47.2467 15.028 47.3987 14.844 47.5027 14.636C47.6147 14.428 47.6707 14.208 47.6707 13.976V13.712L47.8867 13.952H45.4027V12.56H49.2067C49.2227 12.648 49.2347 12.748 49.2427 12.86C49.2507 12.964 49.2547 13.064 49.2547 13.16C49.2627 13.256 49.2667 13.34 49.2667 13.412C49.2667 13.964 49.1667 14.468 48.9667 14.924C48.7747 15.372 48.5067 15.76 48.1627 16.088C47.8187 16.416 47.4147 16.672 46.9507 16.856C46.4947 17.032 45.9947 17.12 45.4507 17.12ZM52.2634 17L55.5394 8.6H56.9914L60.2434 17H58.6354L56.8234 12.2C56.7914 12.112 56.7394 11.964 56.6674 11.756C56.6034 11.548 56.5314 11.32 56.4514 11.072C56.3714 10.824 56.2954 10.596 56.2234 10.388C56.1594 10.18 56.1154 10.024 56.0914 9.92L56.3914 9.908C56.3434 10.068 56.2874 10.252 56.2234 10.46C56.1594 10.66 56.0914 10.868 56.0194 11.084C55.9474 11.3 55.8754 11.508 55.8034 11.708C55.7314 11.908 55.6674 12.088 55.6114 12.248L53.8114 17H52.2634ZM53.7514 15.068L54.2794 13.724H58.1074L58.6954 15.068H53.7514ZM67.2956 17.12C66.6956 17.12 66.1436 17.016 65.6396 16.808C65.1356 16.6 64.6996 16.304 64.3316 15.92C63.9636 15.528 63.6756 15.068 63.4676 14.54C63.2676 14.004 63.1676 13.42 63.1676 12.788C63.1676 12.18 63.2756 11.616 63.4916 11.096C63.7076 10.576 64.0076 10.12 64.3916 9.728C64.7756 9.336 65.2236 9.032 65.7356 8.816C66.2476 8.6 66.7996 8.492 67.3916 8.492C67.7996 8.492 68.1956 8.552 68.5796 8.672C68.9636 8.792 69.3156 8.96 69.6356 9.176C69.9636 9.384 70.2316 9.632 70.4396 9.92L69.4436 10.988C69.1316 10.668 68.8036 10.424 68.4596 10.256C68.1236 10.088 67.7676 10.004 67.3916 10.004C67.0236 10.004 66.6756 10.072 66.3476 10.208C66.0276 10.344 65.7476 10.536 65.5076 10.784C65.2756 11.032 65.0916 11.328 64.9556 11.672C64.8196 12.008 64.7516 12.384 64.7516 12.8C64.7516 13.224 64.8156 13.612 64.9436 13.964C65.0796 14.308 65.2676 14.604 65.5076 14.852C65.7556 15.1 66.0476 15.288 66.3836 15.416C66.7276 15.544 67.1076 15.608 67.5236 15.608C67.7796 15.608 68.0316 15.576 68.2796 15.512C68.5276 15.44 68.7596 15.336 68.9756 15.2C69.1916 15.064 69.3836 14.908 69.5516 14.732L70.3196 15.968C70.1276 16.184 69.8716 16.38 69.5516 16.556C69.2316 16.732 68.8756 16.872 68.4836 16.976C68.0916 17.072 67.6956 17.12 67.2956 17.12ZM76.5788 17V12.812L76.6628 13.4L73.2668 8.6H75.0908L77.6708 12.308L77.1308 12.272L79.4588 8.6H81.2108L77.9588 13.532L78.1388 12.716V17H76.5788Z" fill="white"/>
<defs>
<linearGradient id="paint0_linear_1606_6573" x1="8.42857" y1="2.5" x2="10.0028" y2="24.2395" gradientUnits="userSpaceOnUse">
<stop stop-color="#F4AD22"/>
<stop offset="1" stop-color="#946303"/>
</linearGradient>
<linearGradient id="paint1_linear_1606_6573" x1="4.30769" y1="22" x2="17.0306" y2="1.39392" gradientUnits="userSpaceOnUse">
<stop stop-color="#E2A025"/>
<stop offset="0.489583" stop-color="#F4C979"/>
<stop offset="1" stop-color="#D79314"/>
</linearGradient>
</defs>
</svg>
