<svg width="40" height="40" viewBox="0 0 40 40" fill="none" xmlns="http://www.w3.org/2000/svg">
<circle cx="30" cy="10" r="10" fill="#1DD1A1"/>
<g filter="url(#filter0_b_2028_38663)">
<circle cx="20" cy="20" r="20" fill="#1DD1A1" fill-opacity="0.35"/>
<circle cx="20" cy="20" r="19.5" stroke="url(#paint0_linear_2028_38663)" stroke-linecap="round"/>
</g>
<g filter="url(#filter1_d_2028_38663)">
<path d="M19.1113 20.525C20.4947 20.525 21.7447 20.3583 22.8613 20.025C23.978 19.6917 24.8613 19.1917 25.5113 18.525C26.178 17.8583 26.5113 17.025 26.5113 16.025C26.5113 15.125 26.2697 14.3083 25.7863 13.575C25.3197 12.8417 24.628 12.2583 23.7113 11.825C22.7947 11.3917 21.678 11.175 20.3613 11.175C19.128 11.175 18.0447 11.4167 17.1113 11.9C16.178 12.3667 15.453 13.0167 14.9363 13.85C14.4363 14.6667 14.1863 15.5917 14.1863 16.625H18.0613C18.0613 16.0083 18.278 15.5083 18.7113 15.125C19.1447 14.7417 19.6947 14.55 20.3613 14.55C20.8113 14.55 21.178 14.625 21.4613 14.775C21.7447 14.9083 21.9613 15.1083 22.1113 15.375C22.2613 15.6417 22.3363 15.9417 22.3363 16.275C22.3363 16.5917 22.2613 16.8917 22.1113 17.175C21.9613 17.4583 21.7363 17.7083 21.4363 17.925C21.153 18.1417 20.8113 18.3167 20.4113 18.45C20.028 18.5667 19.5947 18.625 19.1113 18.625V20.525ZM20.1613 29.4C21.5947 29.4 22.8197 29.1833 23.8363 28.75C24.853 28.3 25.6363 27.6917 26.1863 26.925C26.7363 26.1417 27.0113 25.2417 27.0113 24.225C27.0113 23.3417 26.8197 22.5833 26.4363 21.95C26.053 21.3167 25.503 20.8 24.7863 20.4C24.0697 19.9833 23.228 19.6833 22.2613 19.5C21.3113 19.3 20.2613 19.2 19.1113 19.2V21.35C19.7447 21.35 20.2947 21.4083 20.7613 21.525C21.228 21.6417 21.6113 21.8167 21.9113 22.05C22.228 22.2667 22.4613 22.525 22.6113 22.825C22.7613 23.125 22.8363 23.4583 22.8363 23.825C22.8363 24.3083 22.728 24.7167 22.5113 25.05C22.2947 25.3833 21.9947 25.625 21.6113 25.775C21.2447 25.925 20.8113 26 20.3113 26C19.8447 26 19.3947 25.9083 18.9613 25.725C18.5447 25.5417 18.2113 25.2583 17.9613 24.875C17.7113 24.4917 17.5863 24.0167 17.5863 23.45H13.4363C13.4363 24.2167 13.5863 24.9583 13.8863 25.675C14.203 26.3917 14.6447 27.0333 15.2113 27.6C15.7947 28.1667 16.503 28.6083 17.3363 28.925C18.1697 29.2417 19.1113 29.4 20.1613 29.4Z" fill="white"/>
</g>
<defs>
<filter id="filter0_b_2028_38663" x="-6" y="-6" width="52" height="52" filterUnits="userSpaceOnUse" color-interpolation-filters="sRGB">
<feFlood flood-opacity="0" result="BackgroundImageFix"/>
<feGaussianBlur in="BackgroundImage" stdDeviation="3"/>
<feComposite in2="SourceAlpha" operator="in" result="effect1_backgroundBlur_2028_38663"/>
<feBlend mode="normal" in="SourceGraphic" in2="effect1_backgroundBlur_2028_38663" result="shape"/>
</filter>
<filter id="filter1_d_2028_38663" x="11.4365" y="9.17505" width="19.5747" height="24.225" filterUnits="userSpaceOnUse" color-interpolation-filters="sRGB">
<feFlood flood-opacity="0" result="BackgroundImageFix"/>
<feColorMatrix in="SourceAlpha" type="matrix" values="0 0 0 0 0 0 0 0 0 0 0 0 0 0 0 0 0 0 127 0" result="hardAlpha"/>
<feOffset dx="1" dy="1"/>
<feGaussianBlur stdDeviation="1.5"/>
<feColorMatrix type="matrix" values="0 0 0 0 0.113725 0 0 0 0 0.819608 0 0 0 0 0.631373 0 0 0 0.5 0"/>
<feBlend mode="normal" in2="BackgroundImageFix" result="effect1_dropShadow_2028_38663"/>
<feBlend mode="normal" in="SourceGraphic" in2="effect1_dropShadow_2028_38663" result="shape"/>
</filter>
<linearGradient id="paint0_linear_2028_38663" x1="0" y1="0" x2="40.0203" y2="39.9797" gradientUnits="userSpaceOnUse">
<stop stop-color="white" stop-opacity="0.25"/>
<stop offset="1" stop-color="white" stop-opacity="0"/>
</linearGradient>
</defs>
</svg>
