<svg width="80" height="80" viewBox="0 0 80 80" fill="none" xmlns="http://www.w3.org/2000/svg">
<path d="M9.69847 64.8873C4.56616 59.755 2 57.1888 2 54C2 50.8112 4.56615 48.245 9.69846 43.1127L10.1127 42.6985C15.245 37.5662 17.8112 35 21 35C24.1888 35 26.755 37.5662 31.8873 42.6985L32.3015 43.1127C37.4338 48.245 40 50.8112 40 54C40 57.1888 37.4338 59.755 32.3015 64.8873L31.8873 65.3015C26.755 70.4338 24.1888 73 21 73C17.8112 73 15.245 70.4338 10.1127 65.3015L9.69847 64.8873Z" fill="url(#paint0_linear_1388_6138)"/>
<g filter="url(#filter0_b_1388_6138)">
<path d="M65.2666 17.9713C63.4166 17.3882 61.3379 17.1051 58.9361 16.9569C56.1908 16.7875 52.8547 16.7875 48.7617 16.7875H39.5231C34.6863 16.7875 30.8945 16.7874 27.8652 17.0755C24.7775 17.3691 22.2492 17.9778 20.0204 19.3436C17.6865 20.7738 15.7241 22.7361 14.2939 25.0701C14.2432 25.1528 14.1936 25.2359 14.145 25.3194C14.3781 20.966 14.9871 18.0826 16.5779 15.8C17.4103 14.6055 18.4179 13.5551 19.5637 12.6872C23.1114 10 28.1722 10 38.2937 10H54.4893C59.579 10 62.1239 10 63.7051 11.6485C64.9195 12.9145 65.2012 14.7732 65.2666 17.9713Z" fill="#62E3C2" fill-opacity="0.35"/>
<path d="M16.2227 26.2523C14 29.8793 14 34.8168 14 44.6916C14 54.5664 14 59.5038 16.2227 63.1309C17.4664 65.1604 19.1728 66.8668 21.2023 68.1105C24.8294 70.3332 29.7668 70.3332 39.6416 70.3332H48.6916C58.5664 70.3332 63.5038 70.3332 67.1309 68.1105C69.1604 66.8668 70.8668 65.1604 72.1105 63.1309C73.5702 60.7488 74.0713 57.8016 74.2433 53.2617H55.1365C49.3432 53.2617 44.6468 48.5653 44.6468 42.7719C44.6468 36.9786 49.3432 32.2822 55.1365 32.2822H73.9642C73.6618 29.7854 73.1116 27.8859 72.1105 26.2523C70.8668 24.2227 69.1604 22.5164 67.1309 21.2726C66.5531 20.9186 65.9421 20.6209 65.2832 20.3707C61.8056 19.05 56.9934 19.05 48.6916 19.05H39.6416C29.7668 19.05 24.8294 19.05 21.2023 21.2726C19.1728 22.5164 17.4664 24.2227 16.2227 26.2523Z" fill="#62E3C2" fill-opacity="0.35"/>
<path fill-rule="evenodd" clip-rule="evenodd" d="M74.2665 36.8072H55.1365C51.8423 36.8072 49.1718 39.4777 49.1718 42.7719C49.1718 46.0662 51.8423 48.7367 55.1365 48.7367H74.3261C74.3332 47.4873 74.3332 46.1427 74.3332 44.6916C74.3332 41.6229 74.3332 39.0311 74.2665 36.8072Z" fill="#62E3C2" fill-opacity="0.35"/>
<path d="M65.2666 17.9713C63.4166 17.3882 61.3379 17.1051 58.9361 16.9569C56.1908 16.7875 52.8547 16.7875 48.7617 16.7875H39.5231C34.6863 16.7875 30.8945 16.7874 27.8652 17.0755C24.7775 17.3691 22.2492 17.9778 20.0204 19.3436C17.6865 20.7738 15.7241 22.7361 14.2939 25.0701C14.2432 25.1528 14.1936 25.2359 14.145 25.3194C14.3781 20.966 14.9871 18.0826 16.5779 15.8C17.4103 14.6055 18.4179 13.5551 19.5637 12.6872C23.1114 10 28.1722 10 38.2937 10H54.4893C59.579 10 62.1239 10 63.7051 11.6485C64.9195 12.9145 65.2012 14.7732 65.2666 17.9713Z" stroke="url(#paint1_linear_1388_6138)" stroke-width="0.1" stroke-linecap="round"/>
<path d="M16.2227 26.2523C14 29.8793 14 34.8168 14 44.6916C14 54.5664 14 59.5038 16.2227 63.1309C17.4664 65.1604 19.1728 66.8668 21.2023 68.1105C24.8294 70.3332 29.7668 70.3332 39.6416 70.3332H48.6916C58.5664 70.3332 63.5038 70.3332 67.1309 68.1105C69.1604 66.8668 70.8668 65.1604 72.1105 63.1309C73.5702 60.7488 74.0713 57.8016 74.2433 53.2617H55.1365C49.3432 53.2617 44.6468 48.5653 44.6468 42.7719C44.6468 36.9786 49.3432 32.2822 55.1365 32.2822H73.9642C73.6618 29.7854 73.1116 27.8859 72.1105 26.2523C70.8668 24.2227 69.1604 22.5164 67.1309 21.2726C66.5531 20.9186 65.9421 20.6209 65.2832 20.3707C61.8056 19.05 56.9934 19.05 48.6916 19.05H39.6416C29.7668 19.05 24.8294 19.05 21.2023 21.2726C19.1728 22.5164 17.4664 24.2227 16.2227 26.2523Z" stroke="url(#paint2_linear_1388_6138)" stroke-width="0.1" stroke-linecap="round"/>
<path fill-rule="evenodd" clip-rule="evenodd" d="M74.2665 36.8072H55.1365C51.8423 36.8072 49.1718 39.4777 49.1718 42.7719C49.1718 46.0662 51.8423 48.7367 55.1365 48.7367H74.3261C74.3332 47.4873 74.3332 46.1427 74.3332 44.6916C74.3332 41.6229 74.3332 39.0311 74.2665 36.8072Z" stroke="url(#paint3_linear_1388_6138)" stroke-width="0.1" stroke-linecap="round"/>
</g>
<g filter="url(#filter1_d_1388_6138)">
<path d="M55.1363 40.5096C53.8867 40.5096 52.8738 41.5226 52.8738 42.7721C52.8738 44.0217 53.8867 45.0346 55.1363 45.0346H63.3635C64.6131 45.0346 65.626 44.0217 65.626 42.7721C65.626 41.5226 64.6131 40.5096 63.3635 40.5096H55.1363Z" fill="url(#paint4_linear_1388_6138)"/>
</g>
<defs>
<filter id="filter0_b_1388_6138" x="-10.05" y="-14.05" width="108.433" height="108.433" filterUnits="userSpaceOnUse" color-interpolation-filters="sRGB">
<feFlood flood-opacity="0" result="BackgroundImageFix"/>
<feGaussianBlur in="BackgroundImage" stdDeviation="12"/>
<feComposite in2="SourceAlpha" operator="in" result="effect1_backgroundBlur_1388_6138"/>
<feBlend mode="normal" in="SourceGraphic" in2="effect1_backgroundBlur_1388_6138" result="shape"/>
</filter>
<filter id="filter1_d_1388_6138" x="49.8738" y="37.5096" width="28.7522" height="20.525" filterUnits="userSpaceOnUse" color-interpolation-filters="sRGB">
<feFlood flood-opacity="0" result="BackgroundImageFix"/>
<feColorMatrix in="SourceAlpha" type="matrix" values="0 0 0 0 0 0 0 0 0 0 0 0 0 0 0 0 0 0 127 0" result="hardAlpha"/>
<feOffset dx="5" dy="5"/>
<feGaussianBlur stdDeviation="4"/>
<feColorMatrix type="matrix" values="0 0 0 0 0.176471 0 0 0 0 0.556863 0 0 0 0 0.678431 0 0 0 0.5 0"/>
<feBlend mode="normal" in2="BackgroundImageFix" result="effect1_dropShadow_1388_6138"/>
<feBlend mode="normal" in="SourceGraphic" in2="effect1_dropShadow_1388_6138" result="shape"/>
</filter>
<linearGradient id="paint0_linear_1388_6138" x1="2" y1="73" x2="40.8097" y2="35.8458" gradientUnits="userSpaceOnUse">
<stop stop-color="#009A73"/>
<stop offset="1" stop-color="#1BF4C2"/>
</linearGradient>
<linearGradient id="paint1_linear_1388_6138" x1="14" y1="10" x2="74.3637" y2="70.3026" gradientUnits="userSpaceOnUse">
<stop stop-color="white" stop-opacity="0.25"/>
<stop offset="1" stop-color="white" stop-opacity="0"/>
</linearGradient>
<linearGradient id="paint2_linear_1388_6138" x1="14" y1="10" x2="74.3637" y2="70.3026" gradientUnits="userSpaceOnUse">
<stop stop-color="white" stop-opacity="0.25"/>
<stop offset="1" stop-color="white" stop-opacity="0"/>
</linearGradient>
<linearGradient id="paint3_linear_1388_6138" x1="14" y1="10" x2="74.3637" y2="70.3026" gradientUnits="userSpaceOnUse">
<stop stop-color="white" stop-opacity="0.25"/>
<stop offset="1" stop-color="white" stop-opacity="0"/>
</linearGradient>
<linearGradient id="paint4_linear_1388_6138" x1="59.3573" y1="45.9986" x2="63.3556" y2="34.9531" gradientUnits="userSpaceOnUse">
<stop stop-color="white"/>
<stop offset="1" stop-color="white" stop-opacity="0.2"/>
</linearGradient>
</defs>
</svg>
