<?xml version="1.0" standalone="no"?>
<!DOCTYPE svg PUBLIC "-//W3C//DTD SVG 20010904//EN"
 "http://www.w3.org/TR/2001/REC-SVG-20010904/DTD/svg10.dtd">
<svg version="1.0" xmlns="http://www.w3.org/2000/svg"
 width="320.000000pt" height="320.000000pt" viewBox="0 0 320.000000 320.000000"
 preserveAspectRatio="xMidYMid meet">
<metadata>
Created by potrace 1.14, written by Peter Selinger 2001-2017
</metadata>
<g transform="translate(0.000000,320.000000) scale(0.100000,-0.100000)"
fill="#000000" stroke="none">
<path d="M0 1600 l0 -1600 1600 0 1600 0 0 1600 0 1600 -1600 0 -1600 0 0
-1600z m1425 1000 c-6 -9 8 -14 28 -11 11 2 9 -697 -3 -704 -5 -3 -10 -11 -10
-18 0 -8 3 -8 12 1 15 15 54 16 63 2 3 -5 11 -10 18 -10 8 0 8 3 -1 12 -9 9
-12 103 -12 360 0 300 2 349 15 354 8 4 12 10 9 15 -3 5 193 9 470 9 344 0
476 -3 476 -11 0 -6 9 -9 20 -6 30 8 24 -6 -11 -25 -16 -10 -27 -13 -24 -8 4
7 -158 10 -459 10 l-466 0 2 -127 2 -128 3 115 c3 76 8 117 16 122 7 4 203 8
436 7 l423 0 -18 -21 c-11 -12 -29 -32 -42 -46 -15 -17 -20 -32 -16 -46 6 -20
5 -20 -8 -3 -13 17 -14 17 -15 -2 -1 -11 1 -20 5 -20 27 4 32 -4 32 -60 0 -56
-2 -61 -32 -82 -18 -13 -39 -32 -47 -42 -7 -10 -20 -16 -28 -13 -8 3 -12 2 -8
-3 7 -12 -72 -74 -85 -66 -13 8 -14 245 0 245 6 0 10 10 10 21 0 19 2 20 17 8
15 -13 15 -12 2 8 -17 28 -21 29 -135 25 l-94 -3 7 -27 c3 -15 10 -28 15 -30
12 -5 10 -509 -2 -517 -6 -4 -8 -11 -4 -16 4 -6 10 -6 18 0 19 16 133 16 151
1 19 -16 34 -5 17 12 -7 7 -12 33 -12 59 0 39 4 49 20 54 11 4 18 11 15 16 -4
5 28 9 75 9 47 0 79 -4 75 -9 -3 -5 4 -12 15 -16 19 -6 20 -15 20 -146 0 -83
-4 -138 -9 -134 -5 3 -11 -2 -13 -10 -3 -14 -28 -16 -186 -16 -160 0 -184 -2
-189 -17 -4 -8 -1 -18 5 -20 17 -5 16 -540 0 -559 -6 -8 -8 -17 -4 -20 4 -4
47 33 95 83 l88 91 -3 59 c-2 48 -1 53 5 24 8 -33 8 -32 10 18 l1 52 -50 0
-50 0 -2 68 -1 67 -7 -60 -7 -60 -1 68 c-3 98 9 106 154 107 87 0 114 -3 124
-15 7 -8 16 -12 21 -9 5 3 9 -77 9 -186 0 -114 -4 -189 -9 -185 -5 3 -11 -1
-13 -9 -2 -8 -136 -153 -298 -321 -162 -169 -323 -337 -357 -374 l-62 -66 -45
50 c-25 28 -45 58 -46 68 0 9 -4 17 -10 17 -15 0 -14 1087 2 1092 6 2 9 12 5
21 -5 13 -18 17 -52 17 -38 0 -45 -3 -45 -20 0 -11 5 -20 10 -20 7 0 10 -172
10 -496 0 -327 -3 -493 -10 -489 -5 3 -10 -3 -10 -14 0 -12 -1 -21 -3 -21 -7
0 -542 542 -546 553 -2 6 -8 15 -13 18 -14 9 -12 280 1 289 7 4 9 15 5 25 -5
12 -3 16 6 13 7 -2 14 -11 16 -20 2 -18 124 -137 155 -152 21 -10 26 -55 9
-85 -8 -16 6 -34 87 -112 88 -85 122 -103 94 -50 -7 13 -10 112 -9 283 l3 263
5 -270 6 -270 -1 285 0 285 -93 3 c-80 2 -93 0 -99 -15 -4 -9 -2 -18 5 -21 16
-5 16 -114 0 -130 -8 -8 -30 6 -91 60 -43 40 -82 79 -85 88 -3 8 -11 18 -17
22 -18 11 -15 710 3 716 6 2 13 11 14 20 1 10 5 -19 8 -63 l6 -80 2 82 2 81
-40 42 c-22 23 -38 45 -35 50 3 5 -1 10 -7 13 -7 2 121 5 284 6 l297 2 4 -103
3 -103 2 107 2 108 -352 2 c-257 2 -352 6 -355 15 -3 7 4 9 18 6 15 -4 20 -3
15 5 -5 9 79 12 339 12 228 0 344 -3 340 -10z m1005 -93 c0 -2 -10 -12 -22
-23 l-23 -19 19 23 c18 21 26 27 26 19z"/>
<path d="M1204 2472 c6 -10 -7 -12 -58 -11 -37 1 -69 -1 -73 -4 -3 -4 -13 -1
-21 6 -12 9 -14 9 -8 0 4 -7 3 -21 -2 -30 -5 -10 -6 -40 -2 -68 l7 -50 3 65
c2 36 5 55 7 43 2 -13 9 -23 14 -23 14 0 12 -503 -3 -518 -6 -6 -9 -15 -5 -19
4 -4 13 -1 19 5 16 16 140 16 156 0 6 -6 15 -9 19 -5 4 4 1 13 -5 19 -15 15
-17 518 -3 518 5 0 11 10 14 23 4 22 4 22 15 -3 10 -24 11 -24 11 -3 1 12 -4
25 -9 28 -6 4 -8 10 -5 14 2 5 -8 7 -23 5 -14 -1 -33 3 -41 9 -12 9 -13 9 -7
-1z"/>
<path d="M1706 2433 c4 -16 11 -29 16 -31 12 -5 10 -499 -2 -523 -12 -22 -7
-24 20 -7 16 10 24 10 40 0 25 -15 38 -16 22 0 -15 15 -17 528 -2 528 6 0 11
10 12 23 1 12 4 -7 8 -43 l7 -65 1 57 c3 84 0 88 -69 88 l-59 0 6 -27z"/>
<path d="M1688 2393 c5 -76 10 -83 11 -15 0 34 -2 62 -7 62 -4 0 -6 -21 -4
-47z"/>
<path d="M1958 2433 c-2 -5 -1 -30 3 -58 l6 -50 1 58 c2 52 -2 69 -10 50z"/>
<path d="M2191 2394 c0 -11 3 -14 6 -6 3 7 2 16 -1 19 -3 4 -6 -2 -5 -13z"/>
<path d="M2333 2360 c0 -30 2 -43 4 -27 2 15 2 39 0 55 -2 15 -4 2 -4 -28z"/>
<path d="M1041 2294 c0 -11 3 -14 6 -6 3 7 2 16 -1 19 -3 4 -6 -2 -5 -13z"/>
<path d="M2172 2180 c0 -14 2 -19 5 -12 2 6 2 18 0 25 -3 6 -5 1 -5 -13z"/>
<path d="M1253 1960 c0 -30 2 -43 4 -27 2 15 2 39 0 55 -2 15 -4 2 -4 -28z"/>
<path d="M2172 1925 c0 -16 2 -22 5 -12 2 9 2 23 0 30 -3 6 -5 -1 -5 -18z"/>
<path d="M1713 1674 c-3 -9 -1 -19 6 -23 14 -9 11 -815 -3 -844 -13 -26 23
-10 52 24 l23 28 -1 395 c0 298 2 395 12 398 6 2 9 12 5 21 -9 23 -85 24 -94
1z"/>
<path d="M1061 1544 c0 -11 3 -14 6 -6 3 7 2 16 -1 19 -3 4 -6 -2 -5 -13z"/>
</g>
</svg>
