<?xml version="1.0" standalone="no"?>
<!DOCTYPE svg PUBLIC "-//W3C//DTD SVG 20010904//EN"
 "http://www.w3.org/TR/2001/REC-SVG-20010904/DTD/svg10.dtd">
<svg version="1.0" xmlns="http://www.w3.org/2000/svg"
 width="512.000000pt" height="512.000000pt" viewBox="0 0 512.000000 512.000000"
 preserveAspectRatio="xMidYMid meet">
<metadata>
Created by potrace 1.14, written by Peter Selinger 2001-2017
</metadata>
<g transform="translate(0.000000,512.000000) scale(0.100000,-0.100000)"
fill="#000000" stroke="none">
<path d="M0 2560 l0 -2560 2560 0 2560 0 0 2560 0 2560 -2560 0 -2560 0 0
-2560z m3906 2219 c211 -79 278 -347 132 -531 -24 -31 -29 -44 -21 -57 5 -9
71 -120 147 -247 l137 -232 83 -4 c64 -3 96 -11 138 -31 69 -34 141 -109 176
-185 24 -50 27 -69 27 -162 0 -96 -3 -110 -29 -165 -38 -76 -111 -149 -184
-183 -48 -22 -70 -26 -137 -25 -44 1 -92 3 -106 5 -24 3 -109 -99 -932 -1121
-897 -1112 -906 -1124 -892 -1150 38 -74 35 -193 -7 -277 -63 -127 -223 -181
-353 -120 -179 83 -216 340 -68 477 74 68 161 91 246 65 l48 -14 182 226 c682
844 1605 1991 1611 2001 4 6 -6 32 -24 59 -17 26 -38 68 -48 94 l-17 48 -200
0 -200 0 -29 -55 c-67 -128 -214 -180 -342 -121 -55 26 -117 91 -136 143 l-12
33 -391 0 -392 0 -14 -27 c-8 -14 -34 -39 -58 -55 -116 -73 -261 0 -278 140
-23 199 227 300 332 135 l20 -32 390 -1 390 0 18 44 c37 89 129 155 222 159
l45 2 75 190 c41 105 92 235 114 289 l39 99 -42 51 c-37 46 -52 73 -70 129 -5
16 -75 17 -1285 17 l-1280 0 -30 -64 c-56 -117 -153 -180 -276 -180 -122 0
-219 64 -276 183 -19 37 -23 64 -23 136 -1 79 2 97 27 147 55 111 153 173 277
173 62 0 84 -5 125 -27 66 -35 118 -90 150 -160 l26 -58 1280 0 c1210 0 1280
1 1285 18 58 188 238 285 410 221z m-2538 -2768 c54 -28 115 -88 144 -143 19
-36 23 -58 23 -138 0 -109 -15 -148 -85 -217 -66 -67 -120 -88 -220 -88 -135
0 -222 52 -280 167 -62 125 -31 282 74 375 66 58 113 73 216 70 64 -3 96 -9
128 -26z"/>
<path d="M3753 4126 c-4 -5 -56 -136 -118 -291 l-111 -282 32 -38 c19 -20 38
-53 44 -71 l12 -34 202 0 203 0 12 43 c16 52 45 100 92 152 l37 40 -146 246
-146 245 -54 0 c-30 -1 -56 -5 -59 -10z"/>
</g>
</svg>
