<svg width="25" height="24" viewBox="0 0 25 24" fill="none" xmlns="http://www.w3.org/2000/svg">
<g clip-path="url(#clip0_138_9886)">
<path d="M22.5502 5.67292C22.4335 5.67292 22.3193 5.68814 22.2077 5.70844L20.6398 3.06733C21 2.74766 21.2334 2.27576 21.2334 1.74044C21.2334 0.778885 20.4951 0 19.5843 0C18.808 0 18.161 0.568307 17.986 1.33451H4.63837C4.46585 0.601289 3.84173 0.0583538 3.09583 0.0583538C2.21546 0.0583538 1.5 0.811867 1.5 1.74298C1.5 2.67409 2.21292 3.4276 3.09583 3.4276C3.84173 3.4276 4.46585 2.88213 4.63837 2.15145H17.986C18.0773 2.54977 18.298 2.89481 18.5999 3.1333L17.3974 6.19302C17.3517 6.18795 17.306 6.1778 17.2604 6.1778C16.621 6.1778 16.0882 6.63193 15.9182 7.25098H11.8614C11.7118 6.89325 11.3769 6.64462 10.9836 6.64462C10.4534 6.64462 10.0221 7.09876 10.0221 7.65945C10.0221 8.22015 10.4534 8.67429 10.9836 8.67429C11.3769 8.67429 11.7143 8.42311 11.8614 8.06792H15.9182C16.0857 8.68697 16.621 9.14111 17.2604 9.14111C17.8997 9.14111 18.4325 8.68697 18.6025 8.06792H20.7159C20.792 8.4561 20.9772 8.80114 21.2334 9.07007L11.8462 20.7609C11.6661 20.6772 11.4707 20.6265 11.2627 20.6265C10.4711 20.6265 9.82925 21.3039 9.82925 22.1411C9.82925 22.9784 10.4711 23.6558 11.2627 23.6558C12.0543 23.6558 12.6961 22.9784 12.6961 22.1411C12.6961 21.8316 12.6074 21.5449 12.4577 21.3064L21.921 9.51913C22.1189 9.59525 22.3295 9.64345 22.5527 9.64345C23.5879 9.64345 24.4276 8.75548 24.4276 7.66199C24.4251 6.5609 23.5878 5.67292 22.5502 5.67292ZM20.7159 7.24591H18.6025C18.5238 6.95415 18.364 6.70297 18.1458 6.51523L19.3484 3.45551C19.427 3.46819 19.5031 3.48088 19.5843 3.48088C19.6985 3.48088 19.8076 3.46819 19.9142 3.44536L21.4592 6.04587C21.0863 6.33256 20.8148 6.75372 20.7159 7.24591Z" fill="white"/>
<path d="M22.5502 5.67292C22.4335 5.67292 22.3193 5.68814 22.2077 5.70844L20.6398 3.06733C21 2.74766 21.2334 2.27576 21.2334 1.74044C21.2334 0.778885 20.4951 0 19.5843 0C18.808 0 18.161 0.568307 17.986 1.33451H4.63837C4.46585 0.601289 3.84173 0.0583538 3.09583 0.0583538C2.21546 0.0583538 1.5 0.811867 1.5 1.74298C1.5 2.67409 2.21292 3.4276 3.09583 3.4276C3.84173 3.4276 4.46585 2.88213 4.63837 2.15145H17.986C18.0773 2.54977 18.298 2.89481 18.5999 3.1333L17.3974 6.19302C17.3517 6.18795 17.306 6.1778 17.2604 6.1778C16.621 6.1778 16.0882 6.63193 15.9182 7.25098H11.8614C11.7118 6.89325 11.3769 6.64462 10.9836 6.64462C10.4534 6.64462 10.0221 7.09876 10.0221 7.65945C10.0221 8.22015 10.4534 8.67429 10.9836 8.67429C11.3769 8.67429 11.7143 8.42311 11.8614 8.06792H15.9182C16.0857 8.68697 16.621 9.14111 17.2604 9.14111C17.8997 9.14111 18.4325 8.68697 18.6025 8.06792H20.7159C20.792 8.4561 20.9772 8.80114 21.2334 9.07007L11.8462 20.7609C11.6661 20.6772 11.4707 20.6265 11.2627 20.6265C10.4711 20.6265 9.82925 21.3039 9.82925 22.1411C9.82925 22.9784 10.4711 23.6558 11.2627 23.6558C12.0543 23.6558 12.6961 22.9784 12.6961 22.1411C12.6961 21.8316 12.6074 21.5449 12.4577 21.3064L21.921 9.51913C22.1189 9.59525 22.3295 9.64345 22.5527 9.64345C23.5879 9.64345 24.4276 8.75548 24.4276 7.66199C24.4251 6.5609 23.5878 5.67292 22.5502 5.67292ZM20.7159 7.24591H18.6025C18.5238 6.95415 18.364 6.70297 18.1458 6.51523L19.3484 3.45551C19.427 3.46819 19.5031 3.48088 19.5843 3.48088C19.6985 3.48088 19.8076 3.46819 19.9142 3.44536L21.4592 6.04587C21.0863 6.33256 20.8148 6.75372 20.7159 7.24591Z" fill="url(#paint0_linear_138_9886)"/>
<path d="M6.22659 14.3802C5.77245 14.3802 5.38935 14.54 5.07222 14.8546C4.75508 15.1844 4.59778 15.5701 4.59778 16.009C4.59778 16.4631 4.75508 16.8488 5.07222 17.1634C5.38935 17.4805 5.77245 17.6378 6.22659 17.6378C6.6655 17.6378 7.0486 17.4805 7.37081 17.1634C7.69302 16.8462 7.8554 16.4631 7.8554 16.009C7.8554 15.5701 7.69302 15.187 7.37081 14.8648C7.04607 14.5426 6.6655 14.3802 6.22659 14.3802Z" fill="white"/>
<path d="M6.22659 14.3802C5.77245 14.3802 5.38935 14.54 5.07222 14.8546C4.75508 15.1844 4.59778 15.5701 4.59778 16.009C4.59778 16.4631 4.75508 16.8488 5.07222 17.1634C5.38935 17.4805 5.77245 17.6378 6.22659 17.6378C6.6655 17.6378 7.0486 17.4805 7.37081 17.1634C7.69302 16.8462 7.8554 16.4631 7.8554 16.009C7.8554 15.5701 7.69302 15.187 7.37081 14.8648C7.04607 14.5426 6.6655 14.3802 6.22659 14.3802Z" fill="url(#paint1_linear_138_9886)"/>
</g>
<defs>
<linearGradient id="paint0_linear_138_9886" x1="1.5" y1="-0.109517" x2="16.1761" y2="27.8738" gradientUnits="userSpaceOnUse">
<stop stop-color="#92ECF2"/>
<stop offset="1" stop-color="#63A4FF"/>
</linearGradient>
<linearGradient id="paint1_linear_138_9886" x1="1.5" y1="-0.109517" x2="16.1761" y2="27.8738" gradientUnits="userSpaceOnUse">
<stop stop-color="#92ECF2"/>
<stop offset="1" stop-color="#63A4FF"/>
</linearGradient>
<clipPath id="clip0_138_9886">
<rect width="24" height="24" fill="white" transform="translate(0.5)"/>
</clipPath>
</defs>
</svg>
