<svg width="23" height="24" viewBox="0 0 23 24" fill="none" xmlns="http://www.w3.org/2000/svg">
<path d="M21.0502 5.67292C20.9335 5.67292 20.8193 5.68814 20.7077 5.70844L19.1398 3.06733C19.5 2.74766 19.7334 2.27576 19.7334 1.74044C19.7334 0.778885 18.9951 0 18.0843 0C17.308 0 16.661 0.568307 16.486 1.33451H3.13837C2.96585 0.601289 2.34173 0.0583538 1.59583 0.0583538C0.71546 0.0583538 0 0.811867 0 1.74298C0 2.67409 0.712923 3.4276 1.59583 3.4276C2.34173 3.4276 2.96585 2.88213 3.13837 2.15145H16.486C16.5773 2.54977 16.798 2.89481 17.0999 3.1333L15.8974 6.19302C15.8517 6.18795 15.806 6.1778 15.7604 6.1778C15.121 6.1778 14.5882 6.63193 14.4182 7.25098H10.3614C10.2118 6.89325 9.87687 6.64462 9.48362 6.64462C8.95337 6.64462 8.52206 7.09876 8.52206 7.65945C8.52206 8.22015 8.95337 8.67429 9.48362 8.67429C9.87687 8.67429 10.2143 8.42311 10.3614 8.06792H14.4182C14.5857 8.68697 15.121 9.14111 15.7604 9.14111C16.3997 9.14111 16.9325 8.68697 17.1025 8.06792H19.2159C19.292 8.4561 19.4772 8.80114 19.7334 9.07007L10.3462 20.7609C10.1661 20.6772 9.97074 20.6265 9.7627 20.6265C8.97113 20.6265 8.32925 21.3039 8.32925 22.1411C8.32925 22.9784 8.97113 23.6558 9.7627 23.6558C10.5543 23.6558 11.1961 22.9784 11.1961 22.1411C11.1961 21.8316 11.1074 21.5449 10.9577 21.3064L20.421 9.51913C20.6189 9.59525 20.8295 9.64345 21.0527 9.64345C22.0879 9.64345 22.9276 8.75548 22.9276 7.66199C22.9251 6.5609 22.0878 5.67292 21.0502 5.67292ZM19.2159 7.24591H17.1025C17.0238 6.95415 16.864 6.70297 16.6458 6.51523L17.8484 3.45551C17.927 3.46819 18.0031 3.48088 18.0843 3.48088C18.1985 3.48088 18.3076 3.46819 18.4142 3.44536L19.9592 6.04587C19.5863 6.33256 19.3148 6.75372 19.2159 7.24591Z" fill="white"/>
<path d="M21.0502 5.67292C20.9335 5.67292 20.8193 5.68814 20.7077 5.70844L19.1398 3.06733C19.5 2.74766 19.7334 2.27576 19.7334 1.74044C19.7334 0.778885 18.9951 0 18.0843 0C17.308 0 16.661 0.568307 16.486 1.33451H3.13837C2.96585 0.601289 2.34173 0.0583538 1.59583 0.0583538C0.71546 0.0583538 0 0.811867 0 1.74298C0 2.67409 0.712923 3.4276 1.59583 3.4276C2.34173 3.4276 2.96585 2.88213 3.13837 2.15145H16.486C16.5773 2.54977 16.798 2.89481 17.0999 3.1333L15.8974 6.19302C15.8517 6.18795 15.806 6.1778 15.7604 6.1778C15.121 6.1778 14.5882 6.63193 14.4182 7.25098H10.3614C10.2118 6.89325 9.87687 6.64462 9.48362 6.64462C8.95337 6.64462 8.52206 7.09876 8.52206 7.65945C8.52206 8.22015 8.95337 8.67429 9.48362 8.67429C9.87687 8.67429 10.2143 8.42311 10.3614 8.06792H14.4182C14.5857 8.68697 15.121 9.14111 15.7604 9.14111C16.3997 9.14111 16.9325 8.68697 17.1025 8.06792H19.2159C19.292 8.4561 19.4772 8.80114 19.7334 9.07007L10.3462 20.7609C10.1661 20.6772 9.97074 20.6265 9.7627 20.6265C8.97113 20.6265 8.32925 21.3039 8.32925 22.1411C8.32925 22.9784 8.97113 23.6558 9.7627 23.6558C10.5543 23.6558 11.1961 22.9784 11.1961 22.1411C11.1961 21.8316 11.1074 21.5449 10.9577 21.3064L20.421 9.51913C20.6189 9.59525 20.8295 9.64345 21.0527 9.64345C22.0879 9.64345 22.9276 8.75548 22.9276 7.66199C22.9251 6.5609 22.0878 5.67292 21.0502 5.67292ZM19.2159 7.24591H17.1025C17.0238 6.95415 16.864 6.70297 16.6458 6.51523L17.8484 3.45551C17.927 3.46819 18.0031 3.48088 18.0843 3.48088C18.1985 3.48088 18.3076 3.46819 18.4142 3.44536L19.9592 6.04587C19.5863 6.33256 19.3148 6.75372 19.2159 7.24591Z" fill="url(#paint0_linear_4_186)"/>
<path d="M4.72659 14.3802C4.27245 14.3802 3.88935 14.54 3.57222 14.8546C3.25508 15.1844 3.09778 15.5701 3.09778 16.009C3.09778 16.4631 3.25508 16.8488 3.57222 17.1634C3.88935 17.4805 4.27245 17.6378 4.72659 17.6378C5.1655 17.6378 5.5486 17.4805 5.87081 17.1634C6.19302 16.8462 6.3554 16.4631 6.3554 16.009C6.3554 15.5701 6.19302 15.187 5.87081 14.8648C5.54607 14.5426 5.1655 14.3802 4.72659 14.3802Z" fill="white"/>
<path d="M4.72659 14.3802C4.27245 14.3802 3.88935 14.54 3.57222 14.8546C3.25508 15.1844 3.09778 15.5701 3.09778 16.009C3.09778 16.4631 3.25508 16.8488 3.57222 17.1634C3.88935 17.4805 4.27245 17.6378 4.72659 17.6378C5.1655 17.6378 5.5486 17.4805 5.87081 17.1634C6.19302 16.8462 6.3554 16.4631 6.3554 16.009C6.3554 15.5701 6.19302 15.187 5.87081 14.8648C5.54607 14.5426 5.1655 14.3802 4.72659 14.3802Z" fill="url(#paint1_linear_4_186)"/>
<defs>
<linearGradient id="paint0_linear_4_186" x1="22.5225" y1="-3.86121e-07" x2="-0.477539" y2="15" gradientUnits="userSpaceOnUse">
<stop stop-color="#8A00FF"/>
<stop offset="1" stop-color="#D150FF"/>
</linearGradient>
<linearGradient id="paint1_linear_4_186" x1="22.5225" y1="-3.86121e-07" x2="-0.477539" y2="15" gradientUnits="userSpaceOnUse">
<stop stop-color="#8A00FF"/>
<stop offset="1" stop-color="#D150FF"/>
</linearGradient>
</defs>
</svg>
